<?xml version="1.0" encoding="utf-8"?>
<!-- Generator: Adobe Illustrator 27.5.0, SVG Export Plug-In . SVG Version: 6.00 Build 0)  -->
<svg version="1.1" xmlns="http://www.w3.org/2000/svg" xmlns:xlink="http://www.w3.org/1999/xlink" x="0px" y="0px"
	 viewBox="0 0 500 500" style="enable-background:new 0 0 500 500;" xml:space="preserve">
<g id="Wall">
	<g id="Wall_1_">
		<path style="fill:#F0F0F0;" d="M257.034,67.15v5.2c0,1.639,1.151,2.303,2.57,1.483l23.79-13.735c1.419-0.82,2.57-2.812,2.57-4.451
			v-5.2c0-1.639-1.151-2.303-2.57-1.484l-23.79,13.735C258.185,63.519,257.034,65.511,257.034,67.15z"/>
		<path style="fill:#F0F0F0;" d="M459.603,190.286l-20.945,12.092c-1.419,0.819-2.57,2.812-2.57,4.451v5.2
			c0,1.639,1.151,2.303,2.57,1.484l20.945-12.093V190.286z"/>
		<path style="fill:#F0F0F0;" d="M454.583,217.953l5.019-2.898V203.92l-5.019,2.898c-1.419,0.82-2.57,2.812-2.57,4.451v5.2
			C452.013,218.108,453.164,218.773,454.583,217.953z"/>
		<path style="fill:#F0F0F0;" d="M74.409,212.888l-23.79,13.735c-0.318,0.184-0.62,0.434-0.902,0.719v10.739
			c0.282-0.04,0.583-0.139,0.902-0.323l23.79-13.735c1.419-0.819,2.57-2.812,2.57-4.451v-5.2
			C76.979,212.732,75.828,212.068,74.409,212.888z"/>
		<path style="fill:#F0F0F0;" d="M74.19,324.729l-23.79,13.735c-0.238,0.137-0.464,0.317-0.683,0.514v10.897
			c0.219-0.056,0.444-0.137,0.683-0.275l23.79-13.735c1.419-0.82,2.57-2.812,2.57-4.451v-5.2
			C76.759,324.574,75.609,323.909,74.19,324.729z"/>
		<path style="fill:#F0F0F0;" d="M74.409,267.583l-23.79,13.735c-0.318,0.184-0.62,0.434-0.902,0.719v10.739
			c0.282-0.04,0.583-0.139,0.902-0.323l23.79-13.735c1.419-0.82,2.57-2.812,2.57-4.451v-5.2
			C76.979,267.428,75.828,266.764,74.409,267.583z"/>
		<path style="fill:#F0F0F0;" d="M337.947,87.366l-23.79,13.735c-1.419,0.82-2.57,2.812-2.57,4.451v5.2
			c0,1.639,1.151,2.303,2.57,1.484l23.79-13.735c1.419-0.819,2.57-2.812,2.57-4.451v-5.2
			C340.517,87.211,339.366,86.547,337.947,87.366z"/>
		<path style="fill:#F0F0F0;" d="M352.973,65.086l-23.79,13.735c-1.419,0.82-2.57,2.812-2.57,4.451v5.2
			c0,1.639,1.151,2.304,2.57,1.484l23.79-13.735c1.419-0.819,2.57-2.812,2.57-4.451v-5.2
			C355.543,64.931,354.392,64.266,352.973,65.086z"/>
		<path style="fill:#F0F0F0;" d="M183.189,231.264l-23.79,13.735c-1.419,0.819-2.57,2.812-2.57,4.451v5.2
			c0,1.639,1.15,2.303,2.57,1.484l23.79-13.735c1.419-0.819,2.57-2.812,2.57-4.451v-5.2
			C185.759,231.109,184.608,230.445,183.189,231.264z"/>
		<path style="fill:#F0F0F0;" d="M249.684,168.581v5.2c0,1.639,1.151,2.303,2.57,1.484l23.79-13.735
			c1.419-0.82,2.57-2.813,2.57-4.451v-5.2c0-1.639-1.151-2.303-2.57-1.484l-23.79,13.735
			C250.835,164.95,249.684,166.943,249.684,168.581z"/>
		<path style="fill:#F0F0F0;" d="M218.733,147.046v5.2c0,1.639,1.15,2.303,2.57,1.484l23.79-13.735
			c1.419-0.819,2.57-2.812,2.57-4.451v-5.2c0-1.639-1.15-2.303-2.57-1.483l-23.79,13.735
			C219.883,143.414,218.733,145.407,218.733,147.046z"/>
		<path style="fill:#F0F0F0;" d="M291.069,73.419l-23.79,13.735c-1.419,0.819-2.57,2.812-2.57,4.451v5.2
			c0,1.639,1.15,2.303,2.57,1.484l23.79-13.735c1.419-0.819,2.57-2.812,2.57-4.451v-5.2
			C293.639,73.263,292.489,72.599,291.069,73.419z"/>
		<path style="fill:#F0F0F0;" d="M167.263,172.128l-23.79,13.735c-1.419,0.819-2.57,2.812-2.57,4.451v5.2
			c0,1.639,1.15,2.303,2.57,1.484l23.79-13.735c1.419-0.819,2.57-2.812,2.57-4.451v-5.2
			C169.833,171.973,168.683,171.309,167.263,172.128z"/>
		<path style="fill:#F0F0F0;" d="M252.254,229.961l23.79-13.735c1.419-0.819,2.57-2.812,2.57-4.451v-5.2
			c0-1.639-1.151-2.303-2.57-1.484l-23.79,13.735c-1.419,0.82-2.57,2.812-2.57,4.451v5.2
			C249.684,230.116,250.835,230.78,252.254,229.961z"/>
		<path style="fill:#F0F0F0;" d="M81.57,287.375l23.79-13.735c1.419-0.82,2.57-2.813,2.57-4.451v-5.2c0-1.639-1.15-2.303-2.57-1.483
			l-23.79,13.735c-1.419,0.82-2.57,2.812-2.57,4.451l-0.001,5.2C79,287.53,80.15,288.195,81.57,287.375z"/>
		<path style="fill:#F0F0F0;" d="M436.089,139.382v5.2c0,1.639,1.151,2.303,2.57,1.484l20.944-12.092v-11.135l-20.944,12.092
			C437.24,135.75,436.089,137.743,436.089,139.382z"/>
		<path style="fill:#F0F0F0;" d="M221.303,357.193l23.79-13.735c1.419-0.82,2.57-2.813,2.57-4.451v-5.2
			c0-1.639-1.15-2.303-2.57-1.484l-23.79,13.735c-1.419,0.82-2.57,2.813-2.57,4.451v5.2
			C218.733,357.348,219.883,358.013,221.303,357.193z"/>
		<path style="fill:#F0F0F0;" d="M323.91,300.997l23.79-13.735c1.419-0.82,2.57-2.813,2.57-4.451v-5.2
			c0-1.639-1.15-2.303-2.57-1.484l-23.79,13.735c-1.419,0.82-2.57,2.813-2.57,4.451v5.2
			C321.341,301.152,322.491,301.817,323.91,300.997z"/>
		<path style="fill:#F0F0F0;" d="M452.278,60.433v-5.2c0-1.639-1.15-2.303-2.57-1.484l-23.79,13.735
			c-1.419,0.82-2.57,2.812-2.57,4.451v5.2c0,1.639,1.15,2.303,2.57,1.484l23.79-13.735
			C451.127,64.065,452.278,62.072,452.278,60.433z"/>
		<path style="fill:#F0F0F0;" d="M107.93,405.928v-5.2c0-1.639-1.15-2.303-2.57-1.484l-23.79,13.735
			c-1.419,0.82-2.57,2.813-2.57,4.452l-0.001,5.2c0,1.639,1.15,2.303,2.57,1.484l23.79-13.735
			C106.78,409.56,107.93,407.567,107.93,405.928z"/>
		<path style="fill:#F0F0F0;" d="M156.829,58.015v5.2c0,1.639,1.15,2.303,2.57,1.484l23.79-13.735
			c1.419-0.819,2.57-2.812,2.57-4.451v-5.2c0-1.639-1.15-2.303-2.57-1.484l-23.79,13.735
			C157.98,54.383,156.829,56.376,156.829,58.015z"/>
		<path style="fill:#F0F0F0;" d="M459.603,163.379l-20.946,12.093c-1.419,0.819-2.57,2.812-2.57,4.451v5.2
			c0,1.639,1.151,2.303,2.57,1.484l20.946-12.093V163.379z"/>
		<path style="fill:#F0F0F0;" d="M59.383,247.93l-9.666,5.581v11.135l9.666-5.581c1.419-0.819,2.57-2.812,2.57-4.451v-5.2
			C61.953,247.775,60.802,247.11,59.383,247.93z"/>
		<path style="fill:#F0F0F0;" d="M97.496,401.207l23.79-13.735c1.42-0.82,2.57-2.812,2.57-4.451v-5.2c0-1.639-1.15-2.303-2.57-1.484
			l-23.79,13.735c-1.419,0.819-2.57,2.812-2.57,4.451v5.2C94.926,401.362,96.076,402.026,97.496,401.207z"/>
		<path style="fill:#F0F0F0;" d="M74.409,362.389l-23.79,13.735c-0.319,0.184-0.62,0.434-0.902,0.718v10.74
			c0.281-0.04,0.583-0.139,0.902-0.323l23.79-13.735c1.42-0.819,2.57-2.812,2.57-4.451v-5.2
			C76.978,362.233,75.828,361.569,74.409,362.389z"/>
		<path style="fill:#F0F0F0;" d="M187.781,79.929v5.2c0,1.639,1.15,2.303,2.57,1.484l23.79-13.735
			c1.419-0.819,2.57-2.812,2.57-4.451v-5.2c0-1.639-1.15-2.303-2.57-1.484l-23.79,13.735
			C188.932,76.298,187.781,78.291,187.781,79.929z"/>
		<path style="fill:#F0F0F0;" d="M59.383,165.886l-9.666,5.581v11.135l9.666-5.581c1.419-0.82,2.57-2.813,2.57-4.451v-5.2
			C61.953,165.731,60.802,165.067,59.383,165.886z"/>
		<path style="fill:#F0F0F0;" d="M105.36,125.765L81.571,139.5c-1.419,0.819-2.57,2.812-2.57,4.451l-0.001,5.2
			c0,1.639,1.15,2.303,2.57,1.484l23.79-13.735c1.419-0.819,2.57-2.812,2.57-4.451v-5.2
			C107.93,125.61,106.78,124.946,105.36,125.765z"/>
		<path style="fill:#F0F0F0;" d="M167.263,62.736l-23.79,13.735c-1.419,0.819-2.57,2.812-2.57,4.451v5.2
			c0,1.639,1.15,2.303,2.57,1.484l23.79-13.735c1.419-0.819,2.57-2.812,2.57-4.451v-5.2
			C169.833,62.581,168.683,61.917,167.263,62.736z"/>
		<path style="fill:#F0F0F0;" d="M159.399,365.526l23.79-13.735c1.419-0.819,2.57-2.812,2.57-4.451v-5.2
			c0-1.639-1.15-2.303-2.57-1.484l-23.79,13.735c-1.419,0.819-2.57,2.812-2.57,4.451v5.2
			C156.829,365.681,157.98,366.345,159.399,365.526z"/>
		<path style="fill:#F0F0F0;" d="M200.785,325.059v-5.2c0-1.639-1.15-2.303-2.57-1.484l-23.789,13.735
			c-1.42,0.819-2.57,2.812-2.57,4.451l-0.001,5.2c0,1.639,1.151,2.303,2.57,1.484l23.79-13.735
			C199.634,328.691,200.785,326.698,200.785,325.059z"/>
		<path style="fill:#F0F0F0;" d="M167.263,144.78l-23.79,13.735c-1.419,0.82-2.57,2.812-2.57,4.451v5.2
			c0,1.639,1.15,2.303,2.57,1.484l23.79-13.735c1.419-0.82,2.57-2.812,2.57-4.451v-5.2
			C169.833,144.625,168.683,143.961,167.263,144.78z"/>
		<path style="fill:#F0F0F0;" d="M198.215,84.651l-23.789,13.735c-1.42,0.819-2.57,2.812-2.57,4.451l-0.001,5.2
			c0,1.639,1.151,2.303,2.57,1.484l23.79-13.735c1.42-0.819,2.57-2.812,2.57-4.451v-5.2
			C200.785,84.496,199.634,83.832,198.215,84.651z"/>
		<path style="fill:#F0F0F0;" d="M94.926,257.783v5.2c-0.001,1.639,1.15,2.303,2.57,1.484l23.79-13.735
			c1.42-0.82,2.57-2.812,2.57-4.451v-5.2c0-1.639-1.15-2.303-2.57-1.484l-23.79,13.735
			C96.077,254.152,94.926,256.144,94.926,257.783z"/>
		<path style="fill:#F0F0F0;" d="M427.228,120.132l23.79-13.735c1.42-0.819,2.571-2.812,2.571-4.451v-5.2
			c0-1.639-1.151-2.303-2.571-1.484l-23.79,13.735c-1.419,0.819-2.57,2.812-2.57,4.451v5.2
			C424.658,120.287,425.808,120.951,427.228,120.132z"/>
		<path style="fill:#F0F0F0;" d="M97.496,373.859l23.79-13.735c1.42-0.82,2.57-2.812,2.57-4.451v-5.2c0-1.639-1.15-2.303-2.57-1.484
			l-23.79,13.735c-1.419,0.819-2.57,2.812-2.57,4.451v5.2C94.926,374.014,96.076,374.678,97.496,373.859z"/>
		<path style="fill:#F0F0F0;" d="M152.237,276.452l-23.79,13.735c-1.419,0.819-2.57,2.812-2.57,4.451l0,5.2
			c0,1.639,1.151,2.303,2.57,1.484l23.79-13.735c1.419-0.819,2.57-2.812,2.57-4.451v-5.2
			C154.807,276.297,153.657,275.633,152.237,276.452z"/>
		<path style="fill:#F0F0F0;" d="M187.781,204.262v5.2c0,1.639,1.15,2.303,2.57,1.484l23.79-13.735
			c1.419-0.819,2.57-2.812,2.57-4.451v-5.2c0-1.639-1.15-2.303-2.57-1.484l-23.79,13.735
			C188.932,200.63,187.781,202.623,187.781,204.262z"/>
		<path style="fill:#F0F0F0;" d="M326.052,127.099v5.2c0,1.639,1.15,2.304,2.57,1.484l23.79-13.735
			c1.42-0.819,2.571-2.812,2.571-4.451v-5.2c0-1.639-1.151-2.303-2.571-1.484l-23.79,13.735
			C327.203,123.466,326.052,125.46,326.052,127.099z"/>
		<path style="fill:#F0F0F0;" d="M387.467,42.67v5.2c0,1.639,1.15,2.304,2.57,1.484l23.79-13.735
			c1.42-0.819,2.571-2.812,2.571-4.451v-5.2c0-1.639-1.151-2.303-2.571-1.484l-23.79,13.735
			C388.618,39.038,387.467,41.031,387.467,42.67z"/>
		<path style="fill:#F0F0F0;" d="M330.22,168.456v-5.2c0-1.639-1.151-2.303-2.57-1.484l-23.79,13.735
			c-1.42,0.819-2.57,2.812-2.57,4.451v5.2c0,1.639,1.15,2.303,2.57,1.484l23.79-13.735
			C329.069,172.087,330.22,170.095,330.22,168.456z"/>
		<path style="fill:#F0F0F0;" d="M361.171,150.615v-5.2c0-1.639-1.151-2.303-2.57-1.484l-23.79,13.735
			c-1.42,0.819-2.57,2.812-2.57,4.451v5.2c0,1.639,1.15,2.303,2.57,1.484l23.79-13.735
			C360.02,154.247,361.171,152.254,361.171,150.615z"/>
		<path style="fill:#F0F0F0;" d="M260.118,133.927l-23.79,13.735c-1.419,0.819-2.57,2.812-2.57,4.451v5.2
			c0,1.639,1.15,2.303,2.57,1.484l23.79-13.735c1.419-0.82,2.57-2.812,2.57-4.451v-5.2
			C262.688,133.772,261.537,133.107,260.118,133.927z"/>
		<path style="fill:#F0F0F0;" d="M200.785,243.016v-5.2c0-1.639-1.15-2.303-2.57-1.484l-23.789,13.735
			c-1.42,0.82-2.57,2.812-2.57,4.451l-0.001,5.2c0,1.639,1.151,2.303,2.57,1.484l23.79-13.735
			C199.634,246.647,200.785,244.654,200.785,243.016z"/>
		<path style="fill:#F0F0F0;" d="M406.085,217.515l23.79-13.735c1.419-0.82,2.57-2.813,2.57-4.451v-5.2
			c0-1.639-1.151-2.303-2.57-1.484l-23.79,13.735c-1.419,0.82-2.57,2.812-2.57,4.451v5.2
			C403.516,217.67,404.666,218.335,406.085,217.515z"/>
		<path style="fill:#F0F0F0;" d="M416.471,226.452l-23.79,13.735c-1.419,0.82-2.57,2.813-2.57,4.451v5.2
			c0,1.639,1.15,2.303,2.57,1.484l23.79-13.735c1.42-0.82,2.571-2.813,2.571-4.451v-5.2
			C419.042,226.297,417.891,225.632,416.471,226.452z"/>
		<path style="fill:#F0F0F0;" d="M249.684,281.048v-5.2c0-1.639-1.151-2.303-2.57-1.484l-23.79,13.735
			c-1.419,0.819-2.57,2.812-2.57,4.451v5.2c0,1.639,1.15,2.303,2.57,1.484l23.79-13.735
			C248.533,284.68,249.684,282.687,249.684,281.048z"/>
		<path style="fill:#F0F0F0;" d="M231.736,361.915v-5.2c0-1.639-1.151-2.303-2.57-1.484l-23.79,13.735
			c-1.419,0.82-2.57,2.812-2.57,4.451v5.2c0,1.639,1.15,2.303,2.57,1.484l23.79-13.735
			C230.586,365.546,231.736,363.554,231.736,361.915z"/>
		<path style="fill:#F0F0F0;" d="M125.878,75.855l0,5.2c0,1.639,1.151,2.303,2.57,1.484l23.79-13.735
			c1.419-0.819,2.57-2.812,2.57-4.451v-5.2c0-1.639-1.15-2.303-2.57-1.484l-23.79,13.735
			C127.028,72.224,125.878,74.216,125.878,75.855z"/>
		<path style="fill:#F0F0F0;" d="M169.833,397.595v-5.2c0-1.639-1.15-2.303-2.57-1.484l-23.79,13.735
			c-1.419,0.82-2.57,2.812-2.57,4.451v5.2c0,1.639,1.15,2.303,2.57,1.484l23.79-13.735
			C168.683,401.227,169.833,399.234,169.833,397.595z"/>
		<path style="fill:#F0F0F0;" d="M59.383,439.365l-9.666,5.581v11.135l9.666-5.581c1.419-0.819,2.57-2.812,2.57-4.451v-5.2
			C61.953,439.21,60.802,438.546,59.383,439.365z"/>
		<path style="fill:#F0F0F0;" d="M74.409,170.954l-23.79,13.735c-0.319,0.184-0.62,0.434-0.902,0.718v10.739
			c0.281-0.04,0.583-0.139,0.902-0.323l23.79-13.735c1.42-0.82,2.57-2.812,2.57-4.451v-5.2
			C76.978,170.798,75.828,170.134,74.409,170.954z"/>
		<path style="fill:#F0F0F0;" d="M190.351,347.686l23.79-13.735c1.419-0.82,2.57-2.812,2.57-4.451v-5.2
			c0-1.639-1.15-2.303-2.57-1.484l-23.79,13.735c-1.419,0.819-2.57,2.812-2.57,4.451v5.2
			C187.781,347.841,188.932,348.505,190.351,347.686z"/>
		<path style="fill:#F0F0F0;" d="M447.423,143.476l-23.79,13.735c-1.419,0.82-2.57,2.812-2.57,4.451v5.2
			c0,1.639,1.15,2.303,2.57,1.484l23.79-13.735c1.419-0.82,2.57-2.813,2.57-4.451v-5.2
			C449.993,143.321,448.842,142.657,447.423,143.476z"/>
		<path style="fill:#F0F0F0;" d="M229.166,66.811l-23.79,13.735c-1.419,0.82-2.57,2.812-2.57,4.451v5.2
			c0,1.639,1.15,2.303,2.57,1.484l23.79-13.735c1.419-0.819,2.57-2.812,2.57-4.451v-5.2
			C231.736,66.655,230.586,65.991,229.166,66.811z"/>
		<path style="fill:#F0F0F0;" d="M345.297,33.865L321.508,47.6c-1.419,0.819-2.57,2.812-2.57,4.451v5.2
			c0,1.639,1.15,2.303,2.57,1.483L345.297,45c1.419-0.82,2.57-2.812,2.57-4.451v-5.2C347.867,33.709,346.716,33.045,345.297,33.865z
			"/>
		<path style="fill:#F0F0F0;" d="M112.521,214.839l23.79-13.735c1.419-0.819,2.57-2.812,2.57-4.451v-5.2
			c0-1.639-1.15-2.303-2.57-1.484l-23.79,13.735c-1.419,0.819-2.57,2.812-2.57,4.451v5.2
			C109.952,214.994,111.103,215.658,112.521,214.839z"/>
		<path style="fill:#F0F0F0;" d="M231.736,279.871v-5.2c0-1.639-1.151-2.303-2.57-1.483l-23.79,13.735
			c-1.419,0.82-2.57,2.812-2.57,4.451v5.2c0,1.639,1.15,2.303,2.57,1.484l23.79-13.735
			C230.586,283.503,231.736,281.51,231.736,279.871z"/>
		<path style="fill:#F0F0F0;" d="M276.544,304.372l23.79-13.735c1.419-0.819,2.57-2.812,2.57-4.451v-5.2
			c0-1.639-1.15-2.303-2.57-1.484l-23.79,13.735c-1.419,0.819-2.57,2.812-2.57,4.451v5.2
			C273.974,304.527,275.125,305.191,276.544,304.372z"/>
		<path style="fill:#F0F0F0;" d="M317.93,263.905v-5.2c0-1.639-1.15-2.303-2.57-1.484l-23.789,13.735
			c-1.42,0.819-2.57,2.812-2.57,4.451l-0.001,5.2c0,1.639,1.151,2.303,2.57,1.484l23.79-13.735
			C316.779,267.537,317.93,265.544,317.93,263.905z"/>
		<path style="fill:#F0F0F0;" d="M354.671,220.995v-5.2c0-1.639-1.151-2.303-2.57-1.484l-23.79,13.735
			c-1.419,0.819-2.57,2.812-2.57,4.451v5.2c0,1.639,1.15,2.303,2.57,1.484l23.79-13.735
			C353.519,224.627,354.671,222.634,354.671,220.995z"/>
		<path style="fill:#F0F0F0;" d="M307.496,286.532l23.79-13.735c1.419-0.82,2.57-2.812,2.57-4.451v-5.2
			c0-1.639-1.15-2.303-2.57-1.484l-23.79,13.735c-1.419,0.819-2.57,2.812-2.57,4.451v5.2
			C304.926,286.687,306.076,287.351,307.496,286.532z"/>
		<path style="fill:#F0F0F0;" d="M336.723,219.819v-5.2c0-1.639-1.151-2.303-2.57-1.483l-23.79,13.735
			c-1.419,0.82-2.57,2.812-2.57,4.451v5.2c0,1.639,1.15,2.303,2.57,1.484l23.79-13.735
			C335.572,223.45,336.723,221.458,336.723,219.819z"/>
		<path style="fill:#F0F0F0;" d="M319.786,191.082l23.79-13.735c1.419-0.819,2.57-2.812,2.57-4.451v-5.2
			c0-1.639-1.151-2.303-2.57-1.484l-23.79,13.735c-1.419,0.82-2.57,2.812-2.57,4.451v5.2
			C317.216,191.237,318.366,191.902,319.786,191.082z"/>
		<path style="fill:#F0F0F0;" d="M262.688,207.335v-5.2c0-1.639-1.151-2.303-2.57-1.483l-23.79,13.735
			c-1.419,0.819-2.57,2.812-2.57,4.451v5.2c0,1.639,1.15,2.303,2.57,1.484l23.79-13.735
			C261.537,210.966,262.688,208.974,262.688,207.335z"/>
		<path style="fill:#F0F0F0;" d="M58.264,320.289l-8.547,4.935v11.135l8.547-4.934c1.419-0.819,2.57-2.812,2.57-4.451v-5.2
			C60.833,320.134,59.683,319.47,58.264,320.289z"/>
		<path style="fill:#F0F0F0;" d="M75.535,393.413l-23.79,13.735c-0.828,0.478-1.557,1.36-2.028,2.334v8.808
			c0.47,0.432,1.199,0.471,2.028-0.007l23.79-13.735c1.42-0.819,2.57-2.812,2.57-4.451v-5.2
			C78.104,393.257,76.954,392.593,75.535,393.413z"/>
		<path style="fill:#F0F0F0;" d="M94.926,148.392v5.2c-0.001,1.639,1.15,2.303,2.57,1.484l23.79-13.735
			c1.42-0.82,2.57-2.812,2.57-4.451v-5.2c0-1.639-1.15-2.303-2.57-1.484l-23.79,13.735C96.077,144.76,94.926,146.753,94.926,148.392
			z"/>
		<path style="fill:#F0F0F0;" d="M459.602,217.633l-20.945,12.093c-1.419,0.819-2.57,2.812-2.57,4.451v5.2
			c0,1.639,1.151,2.303,2.57,1.484l20.946-12.093L459.602,217.633z"/>
		<g>
			<line style="fill:#E0E0E0;" x1="51.824" y1="473.029" x2="459.404" y2="237.713"/>
			<path style="fill:#E0E0E0;" d="M51.825,473.56c-0.184,0-0.362-0.095-0.461-0.266c-0.146-0.254-0.06-0.579,0.195-0.726
				l407.579-235.316c0.253-0.146,0.58-0.061,0.726,0.195c0.147,0.254,0.06,0.579-0.194,0.726L52.09,473.489
				C52.006,473.538,51.915,473.56,51.825,473.56z"/>
		</g>
	</g>
</g>
<g id="Shadows">
	<path id="Shadow_11_" style="fill:#E0E0E0;" d="M193.956,477.17c-1.261,0-3.14-0.216-4.92-1.243l-38.621-22.298
		c-2.131-1.23-3.401-3.298-3.401-5.529c0.001-2.232,1.272-4.297,3.402-5.527l43.486-25.107c1.408-0.814,3.11-1.244,4.921-1.244
		c1.811,0,3.513,0.43,4.923,1.245l38.618,22.296c2.129,1.229,3.401,3.295,3.401,5.527c0,2.233-1.272,4.299-3.402,5.529
		l-43.486,25.107C197.096,476.954,195.218,477.17,193.956,477.17z"/>
	<path id="Shadow_51_" style="fill:#E0E0E0;" d="M343.901,466.805c26.655,15.389,69.869,15.389,96.524,0
		c26.654-15.389,26.654-40.339,0-55.728c-26.654-15.389-69.869-15.389-96.523,0C317.246,426.466,317.246,451.416,343.901,466.805z"
		/>
</g>
<g id="QR_Code_1_">
	<g id="QR_Code">
		<path id="Shadow_13_" style="opacity:0.1;" d="M255.314,39.581c-0.02-0.15-0.04-0.3-0.07-0.44c-0.02-0.1-0.04-0.2-0.07-0.3
			c0-0.02-0.01-0.04-0.02-0.07c-0.02-0.07-0.04-0.14-0.07-0.2c-0.01-0.04-0.02-0.08-0.04-0.11c-0.03-0.08-0.06-0.15-0.1-0.22
			c-0.08-0.17-0.17-0.31-0.28-0.44c-0.04-0.06-0.09-0.11-0.14-0.16c-0.05-0.06-0.1-0.11-0.16-0.15c-0.08-0.07-0.17-0.13-0.27-0.19
			c-0.05-0.03-0.1-0.06-0.16-0.09c-0.01-0.02-0.03-0.02-0.04-0.02c-0.77-0.37-1.8-0.27-2.92,0.38l-149.45,86.25
			c-1.21,0.7-2.3,1.89-3.08,3.26c-0.11,0.18-0.21,0.37-0.29,0.56c-0.08,0.15-0.15,0.3-0.22,0.45c-0.09,0.19-0.17,0.38-0.24,0.58
			c-0.08,0.2-0.14,0.4-0.2,0.6c-0.04,0.15-0.08,0.29-0.11,0.44c-0.02,0.03-0.03,0.07-0.03,0.1c-0.03,0.13-0.06,0.26-0.08,0.39
			c-0.02,0.09-0.03,0.17-0.04,0.26c-0.02,0.12-0.03,0.23-0.04,0.35c-0.02,0.19-0.03,0.38-0.03,0.56v263.025
			c0,0.16,0.01,0.3,0.02,0.45c0.01,0.13,0.03,0.26,0.05,0.39c0.02,0.14,0.05,0.28,0.09,0.41c0.02,0.07,0.04,0.14,0.06,0.2
			c0.03,0.09,0.06,0.18,0.1,0.26c0.13,0.31,0.31,0.56,0.52,0.77l0.16,0.16c0,0,0.01,0,0.02,0.01c0.03,0.02,0.07,0.05,0.11,0.07
			c0.06,0.03,0.12,0.06,0.16,0.09c0.01,0.01,0.03,0.01,0.04,0.02c0.17,0.09,0.36,0.17,0.56,0.22c0.08,0.02,0.15,0.03,0.23,0.04
			c0.09,0.01,0.19,0.02,0.29,0.02c0.59,0,1.25-0.2,1.95-0.6l149.45-86.25c2.41-1.39,4.36-4.77,4.36-7.55V40.091
			C255.334,39.911,255.324,39.741,255.314,39.581z"/>
		<g id="Sign_1_">
			<g>
				<path style="fill:#37474F;" d="M264.69,44.92c-0.02-0.15-0.04-0.3-0.07-0.44c-0.02-0.1-0.04-0.2-0.07-0.3
					c0-0.02-0.01-0.04-0.02-0.07c-0.02-0.07-0.04-0.14-0.07-0.2c-0.01-0.04-0.02-0.08-0.04-0.11c-0.03-0.08-0.06-0.15-0.1-0.22
					c-0.08-0.17-0.17-0.31-0.28-0.44c-0.04-0.06-0.09-0.11-0.14-0.16c-0.05-0.06-0.1-0.11-0.16-0.15c-0.08-0.07-0.17-0.13-0.27-0.19
					c-0.05-0.03-0.1-0.06-0.16-0.09c-0.01-0.02-0.03-0.02-0.04-0.02c-0.93-0.55-3.27-1.9-3.95-2.29c-0.79-0.45-1.86-0.38-3.05,0.31
					L106.82,126.8c-1.21,0.7-2.3,1.89-3.09,3.26c-0.2,0.34-0.38,0.69-0.53,1.05c-0.15,0.36-0.29,0.72-0.4,1.08
					c-0.05,0.18-0.1,0.36-0.15,0.55c-0.12,0.54-0.19,1.09-0.19,1.61v263.025c0,0.13,0,0.26,0.01,0.38c0.01,0.12,0.02,0.24,0.04,0.35
					c0.02,0.12,0.04,0.23,0.06,0.33c0.02,0.11,0.04,0.21,0.08,0.31c0.09,0.27,0.2,0.5,0.33,0.71c0.14,0.21,0.3,0.4,0.49,0.54
					c0.08,0.07,0.17,0.13,0.26,0.18c0.17,0.1,0.43,0.25,0.75,0.43c0.39,0.23,0.85,0.5,1.32,0.77c0.48,0.27,0.96,0.55,1.36,0.78
					c0.14,0.08,0.27,0.16,0.38,0.22c0,0,0.01,0,0.02,0.01c0.03,0.02,0.07,0.05,0.11,0.07c0.06,0.03,0.12,0.06,0.16,0.09
					c0.01,0.01,0.03,0.01,0.04,0.02c0.17,0.09,0.36,0.17,0.56,0.22c0.08,0.02,0.15,0.03,0.23,0.04c0.09,0.01,0.19,0.02,0.29,0.02
					c0.59,0,1.25-0.2,1.95-0.6l149.45-86.25c2.41-1.39,4.36-4.77,4.36-7.55V45.43C264.71,45.25,264.7,45.08,264.69,44.92z
					 M130.47,133.34c-0.02-0.1-0.03-0.2-0.04-0.31c-0.01-0.13-0.01-0.26-0.01-0.4c0-2.82,1.97-6.25,4.42-7.66
					c0.1-0.06,0.2-0.11,0.31-0.16c0.25-0.13,0.5-0.21,0.74-0.29c0.05-0.01,0.09-0.03,0.14-0.04c0.1,0.38,0.17,0.8,0.17,1.28
					c0,2.81-1.98,6.24-4.42,7.65c-0.42,0.24-0.82,0.4-1.2,0.5C130.53,133.73,130.49,133.54,130.47,133.34z M230.07,75.1
					c0-2.82,1.97-6.25,4.41-7.66c0.13-0.08,0.26-0.14,0.39-0.2c0.08-0.04,0.15-0.07,0.22-0.1c0.1-0.04,0.2-0.08,0.3-0.11
					c0.101-0.034,0.194-0.043,0.292-0.068c0.098,0.367,0.158,0.793,0.158,1.258c0,2.82-1.97,6.25-4.42,7.66
					c-0.41,0.24-0.81,0.4-1.19,0.49C230.13,76,230.07,75.57,230.07,75.1z"/>
			</g>
			<g>
				<path style="fill:#263238;" d="M106.544,136.716v263.02c0,1.236,0.383,2.139,1.021,2.649c-0.952-0.549-3.169-1.825-3.837-2.208
					c-0.785-0.451-1.276-1.423-1.276-2.806v-263.02c0-1.393,0.491-2.924,1.276-4.288l4.092,2.355v0.01
					C107.025,133.792,106.544,135.322,106.544,136.716z"/>
			</g>
			<path style="fill:#455A64;" d="M264.69,44.92c-0.02-0.15-0.04-0.3-0.07-0.44c-0.02-0.1-0.04-0.2-0.07-0.3
				c0-0.02-0.01-0.04-0.02-0.07c-0.02-0.07-0.04-0.14-0.07-0.2c-0.01-0.04-0.02-0.08-0.04-0.11c-0.03-0.08-0.06-0.15-0.1-0.22
				c-0.08-0.17-0.17-0.31-0.28-0.44c-0.04-0.06-0.09-0.11-0.14-0.16c-0.05-0.06-0.1-0.11-0.16-0.15c-0.08-0.07-0.17-0.13-0.27-0.19
				c-0.05-0.03-0.1-0.06-0.16-0.09c-0.01-0.02-0.03-0.02-0.04-0.02c-0.77-0.37-1.8-0.27-2.92,0.38L110.9,129.16
				c-1.21,0.7-2.3,1.89-3.08,3.26c-0.11,0.18-0.21,0.37-0.29,0.56c-0.08,0.15-0.15,0.3-0.22,0.45c-0.09,0.19-0.17,0.38-0.24,0.58
				c-0.08,0.2-0.14,0.4-0.2,0.6c-0.04,0.15-0.08,0.29-0.11,0.44c-0.02,0.03-0.03,0.07-0.03,0.1c-0.03,0.13-0.06,0.26-0.08,0.39
				c-0.02,0.09-0.03,0.17-0.04,0.26c-0.02,0.12-0.03,0.23-0.04,0.35c-0.02,0.19-0.03,0.38-0.03,0.56v263.025
				c0,0.16,0.01,0.3,0.02,0.45c0.01,0.13,0.03,0.26,0.05,0.39c0.02,0.14,0.05,0.28,0.09,0.41c0.02,0.07,0.04,0.14,0.06,0.2
				c0.03,0.09,0.06,0.18,0.1,0.26c0.13,0.31,0.31,0.56,0.52,0.77l0.16,0.16c0,0,0.01,0,0.02,0.01c0.03,0.02,0.07,0.05,0.11,0.07
				c0.06,0.03,0.12,0.06,0.16,0.09c0.01,0.01,0.03,0.01,0.04,0.02c0.17,0.09,0.36,0.17,0.56,0.22c0.08,0.02,0.15,0.03,0.23,0.04
				c0.09,0.01,0.19,0.02,0.29,0.02c0.59,0,1.25-0.2,1.95-0.6l149.45-86.25c2.41-1.39,4.36-4.77,4.36-7.55V45.43
				C264.71,45.25,264.7,45.08,264.69,44.92z M130.47,133.34c-0.02-0.1-0.03-0.2-0.04-0.31c-0.01-0.13-0.01-0.26-0.01-0.4
				c0-2.82,1.97-6.25,4.42-7.66c0.1-0.06,0.2-0.11,0.31-0.16c0.25-0.13,0.5-0.21,0.74-0.29c0.05-0.01,0.09-0.03,0.14-0.04
				c0.1,0.38,0.17,0.8,0.17,1.28c0,2.81-1.98,6.24-4.42,7.65c-0.42,0.24-0.82,0.4-1.2,0.5
				C130.53,133.73,130.49,133.54,130.47,133.34z M230.07,75.1c0-2.82,1.97-6.25,4.41-7.66c0.13-0.08,0.26-0.14,0.39-0.2
				c0.08-0.04,0.15-0.07,0.22-0.1c0.1-0.04,0.2-0.08,0.3-0.11c0.101-0.034,0.194-0.043,0.292-0.068
				c0.098,0.367,0.158,0.793,0.158,1.258c0,2.82-1.97,6.25-4.42,7.66c-0.41,0.24-0.81,0.4-1.19,0.49
				C230.13,76,230.07,75.57,230.07,75.1z"/>
			<polygon style="fill:#FFFFFF;" points="109.092,351.759 262.159,263.386 262.159,79.829 109.092,168.203 			"/>
			<g>
				<path style="fill:#263238;" d="M135.15,124.81c0.251-0.125,0.499-0.216,0.738-0.286
					C135.647,124.596,135.403,124.683,135.15,124.81z"/>
				<path style="fill:#263238;" d="M139.26,127.53c0,2.81-1.98,6.24-4.42,7.65c-2.04,1.17-3.74,0.58-4.26-1.27
					c0.38-0.1,0.78-0.26,1.2-0.5c2.44-1.41,4.42-4.84,4.42-7.65c0-0.48-0.07-0.9-0.17-1.28c-0.046,0.012-0.095,0.031-0.143,0.044
					C137.824,123.947,139.26,125.127,139.26,127.53z"/>
			</g>
			<g>
				<path style="fill:#263238;" d="M235.68,66.95c0.001,0.004,0.002,0.008,0.002,0.012c-0.098,0.025-0.191,0.034-0.292,0.068
					C235.49,67,235.59,66.97,235.68,66.95z"/>
				<path style="fill:#263238;" d="M238.9,69.99c0,2.82-1.97,6.25-4.42,7.66c-2.03,1.17-3.73,0.57-4.25-1.28
					c0.38-0.09,0.78-0.25,1.19-0.49c2.45-1.41,4.42-4.84,4.42-7.66c0-0.465-0.06-0.891-0.158-1.258
					C237.54,66.492,238.9,67.653,238.9,69.99z"/>
			</g>
		</g>
		<g>
			<g>
				<g>
					<path style="fill:#BA68C8;" d="M129.37,210.983c-0.599,0-1.085-0.486-1.085-1.085v-36.589c0-0.388,0.207-0.745,0.543-0.939
						l27.499-15.877c0.517-0.298,1.183-0.122,1.481,0.398c0.3,0.519,0.121,1.182-0.397,1.481l-26.956,15.563v35.963
						C130.455,210.497,129.969,210.983,129.37,210.983z"/>
				</g>
				<g>
					<path style="fill:#BA68C8;" d="M129.37,324.267c-0.187,0-0.374-0.049-0.542-0.146c-0.336-0.194-0.543-0.552-0.543-0.939
						v-36.589c0-0.599,0.486-1.085,1.085-1.085s1.085,0.486,1.085,1.085v34.711l25.872-14.936c0.517-0.298,1.183-0.122,1.481,0.398
						c0.3,0.519,0.121,1.182-0.397,1.481l-27.499,15.875C129.744,324.218,129.557,324.267,129.37,324.267z"/>
				</g>
				<g>
					<path style="fill:#BA68C8;" d="M241.882,146.024c-0.599,0-1.085-0.486-1.085-1.085v-34.711l-25.866,14.934
						c-0.519,0.298-1.183,0.121-1.481-0.398c-0.3-0.519-0.121-1.182,0.397-1.481l27.493-15.873c0.335-0.193,0.749-0.193,1.084,0
						c0.336,0.195,0.543,0.552,0.543,0.939v36.59C242.967,145.538,242.481,146.024,241.882,146.024z"/>
				</g>
				<g>
					<path style="fill:#BA68C8;" d="M214.39,275.181c-0.376,0-0.74-0.194-0.941-0.543c-0.3-0.519-0.121-1.182,0.397-1.481
						l26.95-15.56v-35.965c0-0.599,0.486-1.085,1.085-1.085s1.085,0.486,1.085,1.085v36.591c0,0.388-0.207,0.745-0.543,0.939
						l-27.493,15.873C214.76,275.134,214.573,275.181,214.39,275.181z"/>
				</g>
			</g>
			<path style="fill:#263238;" d="M176.248,233.725c0-0.008,0-0.015,0-0.023c-0.006,0.003-0.011,0.007-0.017,0.01
				c0,0.008,0,0.015,0,0.023C176.237,233.731,176.243,233.728,176.248,233.725z M172.517,190.93
				c-0.005,0.003-0.01,0.006-0.016,0.009c0,0.007,0,0.013,0,0.019c0.005-0.003,0.011-0.006,0.016-0.009
				C172.517,190.943,172.517,190.937,172.517,190.93z M224.954,235.457c2.489-1.437,4.915-2.838,7.379-4.26
				c0-6.66,0-13.251,0-19.821c-0.077,0.005-0.111-0.009-0.145,0.011c-2.304,1.322-4.608,2.65-6.912,3.966
				c-0.351,0.201-0.367,0.491-0.367,0.836c0.002,2.9,0.007,5.799-0.005,8.708c-0.002,0.477,0.112,0.578,0.473,0.359
				c0.896-0.543,1.793-1.019,2.688-1.57c0.416-0.256,0.598-0.215,0.585,0.393c-0.027,1.21-0.027,2.406,0,3.584
				c0.013,0.556-0.149,0.794-0.545,1.009c-0.914,0.496-1.829,1.06-2.743,1.566c-0.332,0.184-0.46,0.416-0.454,0.852
				c0.015,1.446-0.003,2.897,0.003,4.352c-1.296,0.748-2.479,1.431-3.738,2.158c0-8.291,0-16.544,0-24.867
				c-0.987,0.57-1.898,1.105-2.81,1.62c-1.106,0.625-0.945,0.741-0.955-0.729c-0.008-1.204-0.002-2.417-0.002-3.686
				c-1.301,0.751-2.518,1.454-3.735,2.156c0-1.646,0-3.293,0-4.998c-1.031,0.515-1.986,1.12-3.007,1.695
				c-0.731,0.42-0.731,0.419-0.731-0.521c0-1,0-2,0.001-3c0-1.027,0.001-1.029,0.784-1.482c0.965-0.558,1.929-1.114,2.921-1.686
				c0-1.696,0-3.291,0-4.977c-1.086,0.633-2.127,1.207-3.207,1.86c-0.379,0.23-0.516,0.139-0.505-0.383
				c0.024-1.11,0.007-2.199,0.007-3.296c0-1.014,0.001-1.015,0.788-1.471c0.965-0.558,1.929-1.114,2.953-1.705
				c0-1.537-0.016-2.962,0.008-4.409c0.009-0.548-0.16-0.557-0.52-0.339c-0.914,0.553-1.829,1.043-2.743,1.602
				c-0.392,0.24-0.502,0.112-0.493-0.394c0.022-1.231-0.008-2.434,0.014-3.666c0.009-0.525-0.134-0.594-0.51-0.364
				c-0.914,0.557-1.829,1.089-2.743,1.582c-0.401,0.216-0.498,0.484-0.491,0.968c0.017,1.233-0.001,2.488,0.008,3.726
				c0.003,0.382-0.07,0.625-0.397,0.806c-1.11,0.613-2.22,1.254-3.33,1.884c-0.002-7.818-0.005-15.636-0.007-23.454
				c0-1.416,0-1.416-1.081-0.792c-0.87,0.502-1.74,1.005-2.621,1.513c0-1.711,0-3.305,0-4.975c1.096-0.633,2.153-1.262,3.209-1.843
				c0.388-0.214,0.501-0.463,0.498-0.963c-0.013-2.869-0.015-5.745,0.001-8.631c0.003-0.537-0.116-0.673-0.528-0.419
				c-0.84,0.517-1.683,0.943-2.523,1.479c-0.53,0.339-0.726,0.29-0.715-0.5c0.041-2.753,0.001-5.462,0.027-8.207
				c0.006-0.653-0.107-0.82-0.629-0.514c-3.328,1.952-6.656,3.871-9.983,5.766c-0.497,0.283-0.656,0.555-0.65,1.232
				c0.027,2.739-0.005,5.513,0.022,8.252c0.007,0.685-0.165,0.977-0.658,1.236c-0.858,0.45-1.719,0.962-2.578,1.484
				c-0.379,0.23-0.519,0.136-0.51-0.381c0.02-1.181-0.012-2.334,0.014-3.518c0.013-0.59-0.104-0.773-0.578-0.475
				c-0.876,0.55-1.755,1.049-2.632,1.522c-0.403,0.217-0.55,0.464-0.538,1.013c0.026,1.203,0.022,2.426-0.008,3.661
				c-0.005,0.213-0.193,0.698-0.303,0.766c-1.127,0.695-2.256,1.33-3.452,2.02c0-3.343,0-6.597,0-9.934
				c-1.197,0.691-2.326,1.329-3.455,2.019c-0.097,0.059-0.264,0.505-0.268,0.701c-0.025,1.257-0.028,2.503-0.007,3.733
				c0.009,0.509-0.127,0.757-0.506,0.965c-0.914,0.502-1.829,1.064-2.742,1.568c-0.378,0.209-0.518,0.465-0.507,0.971
				c0.022,1.084,0.007,2.19,0.007,3.287c0,1.014,0.001,1.015,0.788,0.56c2.048-1.182,4.096-2.374,6.143-3.53
				c0.18-0.102,0.511-0.067,0.514,0.064c0.037,1.481,0.023,2.993,0.023,4.582c-1.105,0.638-2.143,1.259-3.181,1.826
				c-0.432,0.236-0.566,0.51-0.556,1.078c0.026,1.416,0.007,2.859,0.006,4.291c1.242-0.707,2.483-1.414,3.725-2.12
				c0,1.612,0,3.225,0,4.965c-1.276,0.737-2.501,1.444-3.725,2.151c0,1.651,0,3.303,0,4.954c1.07-0.614,2.14-1.208,3.21-1.853
				c0.398-0.24,0.545-0.178,0.534,0.386c-0.028,1.442-0.012,2.86-0.013,4.287c1.294-0.725,2.587-1.449,3.88-2.173
				c-0.014,1.663-0.158,3.353-0.054,4.951c2.303-1.327,4.56-2.645,6.857-3.942c0.183-0.104,0.52-0.069,0.524,0.064
				c0.038,1.48,0.024,2.992,0.024,4.591c-3.571,2.064-7.115,4.102-10.684,6.174c-0.21,0.122-0.532,0.157-0.535,0.676
				c-0.01,1.509-0.004,3.009-0.004,4.605c1.102-0.636,2.139-1.209,3.174-1.845c0.447-0.275,0.62-0.202,0.604,0.428
				c-0.03,1.186,0.015,2.332-0.018,3.52c-0.018,0.635,0.154,0.69,0.599,0.428c2.102-1.24,4.204-2.427,6.306-3.663
				c0.421-0.247,0.589-0.191,0.575,0.409c-0.029,1.185-0.027,2.356,0,3.509c0.014,0.588-0.17,0.851-0.583,1.077
				c-0.895,0.49-1.792,1.046-2.687,1.537c-0.36,0.197-0.481,0.431-0.473,0.905c0.019,1.134-0.02,2.304,0.014,3.428
				c0.02,0.669-0.121,1.034-0.669,1.314c-0.839,0.429-1.682,0.985-2.522,1.43c-0.437,0.231-0.562,0.503-0.558,1.072
				c-0.003,3.12,0.056,6.143-0.028,9.316c-1.277,0.738-2.51,1.449-3.742,2.16c0.001,1.43,0.016,2.852-0.004,4.294
				c-0.007,0.518,0.122,0.604,0.503,0.375c1.057-0.638,2.115-1.23,3.219-1.868c0.149,2.99,0.004,6.15,0.067,9.196
				c0.004,0.579-0.137,0.833-0.565,1.067c-1.073,0.588-2.147,1.235-3.22,1.858c0.001,1.406-0.022,2.827,0.014,4.212
				c0.016,0.631-0.166,0.873-0.601,1.104c-0.821,0.435-1.647,0.993-2.466,1.395c-0.582,0.286-0.706,0.645-0.688,1.349
				c0.033,1.311-0.006,2.666-0.015,4.003c1.072-0.598,2.144-1.166,3.215-1.809c0.444-0.267,0.556-0.135,0.552,0.43
				c-0.018,2.815-0.023,5.622,0.002,8.411c0.006,0.656-0.12,0.953-0.636,1.241c-2.292,1.315-4.552,2.55-6.848,3.989
				c0,1.448,0.016,2.824-0.008,4.223c-0.009,0.544,0.117,0.668,0.529,0.416c0.895-0.548,1.792-1.023,2.688-1.57
				c0.396-0.242,0.555-0.184,0.542,0.387c-0.028,1.21-0.028,2.406-0.001,3.584c0.012,0.547-0.134,0.799-0.537,1.018
				c-0.914,0.497-1.829,1.027-2.742,1.593c-0.158,0.098-0.443,0.511-0.446,0.658c-0.033,1.5-0.02,2.976-0.02,4.509
				c2.513-1.451,4.968-2.868,7.47-4.313c0-1.424,0.017-2.797-0.008-4.144c-0.01-0.551,0.099-0.851,0.547-1.092
				c0.913-0.493,1.829-1.025,2.743-1.585c0.391-0.239,0.507-0.116,0.499,0.39c-0.02,1.23,0.003,2.436-0.011,3.664
				c-0.005,0.446,0.066,0.626,0.45,0.401c2.194-1.286,4.389-2.55,6.583-3.803c0.338-0.193,0.445-0.427,0.44-0.859
				c-0.014-1.211,0.011-2.445-0.009-3.652c-0.009-0.528,0.125-0.814,0.535-1.037c0.895-0.489,1.792-1.003,2.688-1.553
				c0.427-0.262,0.527-0.077,0.518,0.443c-0.02,1.133,0.026,2.23-0.017,3.374c-0.027,0.732,0.155,0.809,0.678,0.503
				c3.534-2.109,7.048-4.007,10.583-6.173c-0.001-4.681,0.01-9.342-0.01-14.009c-0.003-0.64,0.096-0.976,0.628-1.246
				c0.839-0.426,1.682-0.983,2.523-1.428c0.443-0.235,0.617-0.499,0.6-1.117c-0.033-1.198,0.003-2.44-0.015-3.648
				c-0.007-0.476,0.123-0.706,0.478-0.901c0.932-0.512,1.865-1.049,2.798-1.616c0.372-0.227,0.47-0.087,0.465,0.374
				c-0.015,1.276,0.006,2.533-0.01,3.809c-0.005,0.448,0.119,0.543,0.447,0.342c1.114-0.668,2.167-1.251,3.299-1.912
				c0,3.257-0.003,6.378,0.003,9.492c0.001,0.429-0.189,0.568-0.428,0.706c-0.951,0.546-1.902,1.082-2.853,1.654
				c-0.363,0.219-0.475,0.1-0.468-0.373c0.018-1.229-0.007-2.434,0.012-3.664c0.008-0.489-0.08-0.662-0.484-0.413
				c-0.914,0.561-1.829,1.091-2.743,1.584c-0.427,0.23-0.528,0.52-0.517,1.032c0.022,1.108,0.036,2.224-0.004,3.367
				c-0.025,0.714,0.135,0.857,0.669,0.519c1-0.631,2.003-1.172,3.074-1.79c0,1.684,0,3.281,0,4.91c1.28-0.739,2.49-1.438,3.742-2.16
				c0-1.26-0.007-2.448,0.002-3.645c0.01-1.399-0.16-1.166,0.919-1.794c1.993-1.16,3.987-2.327,5.98-3.443
				c0.494-0.277,0.631-0.57,0.612-1.191c-0.152-5.509,0.81-4.298-3.322-2.256c-0.156,0.083-0.434-0.01-0.437-0.157
				c-0.033-1.461-0.02-2.95-0.02-4.49c2.26-1.414,4.482-2.604,6.738-3.936c0.765-0.442,0.765-0.443,0.766-1.496
				C224.921,238.104,224.885,236.861,224.954,235.457z M176.258,178.833c0-1.647,0-3.295,0-5.048c1.252-0.71,2.44-1.466,3.682-2.217
				c0.023-1.441,0.092-2.91,0.088-4.335c-0.028-0.417,0.1-0.671,0.437-0.859c0.951-0.53,1.902-1.081,2.853-1.647
				c0.338-0.201,0.443-0.072,0.442,0.356c-0.006,4.589-0.007,9.174,0.001,13.754c0.001,0.477-0.132,0.714-0.486,0.909
				c-0.914,0.503-1.829,1.027-2.743,1.585c-0.381,0.233-0.518,0.145-0.509-0.371c0.012-1.464,0.031-2.851-0.024-4.288
				C178.724,177.409,177.491,178.121,176.258,178.833z M183.186,189.766c-1.015,0.566-2.03,1.186-3.044,1.785
				c-0.04-0.174-0.107-0.332-0.109-0.528c-0.01-1.257,0.006-2.531-0.011-3.784c-0.006-0.456,0.086-0.701,0.459-0.904
				c0.929-0.507,1.859-1.045,2.788-1.609c0.394-0.239,0.501-0.084,0.494,0.407c-0.017,1.2-0.027,2.398,0.004,3.57
				C183.782,189.297,183.597,189.536,183.186,189.766z M210.335,214.015c1.107-0.624,2.214-1.259,3.321-1.89
				c0,1.616,0,3.232,0,4.939c-1.187,0.685-2.329,1.355-3.471,1.984c-0.085,0.047-0.236-0.151-0.238-0.306
				c-0.02-1.326-0.005-2.672-0.016-4.003C209.928,214.341,210.073,214.162,210.335,214.015z M202.845,198.39
				c0.969-0.571,1.938-1.114,2.906-1.69c0.323-0.193,0.459-0.13,0.454,0.325c-0.015,1.276-0.014,2.542,0,3.802
				c0.005,0.445-0.132,0.675-0.456,0.856c-0.932,0.522-1.865,1.052-2.796,1.617c-0.398,0.241-0.492,0.068-0.489-0.419
				c0.01-1.388-0.009-2.76-0.018-4.136C202.579,198.621,202.712,198.468,202.845,198.39z M202.466,209.13
				c-0.005-0.457,0.149-0.679,0.465-0.85c0.475-0.256,0.951-0.544,1.426-0.819c0.475-0.274,0.951-0.537,1.426-0.827
				c0.305-0.186,0.423-0.086,0.42,0.322c-0.011,1.298-0.012,2.592,0,3.877c0.004,0.429-0.149,0.624-0.436,0.787
				c-0.951,0.538-1.902,1.083-2.853,1.65c-0.329,0.197-0.454,0.109-0.449-0.337C202.48,211.658,202.48,210.39,202.466,209.13z
				 M198.733,180.186c0.006,0.436-0.103,0.666-0.438,0.853c-0.966,0.539-1.932,1.102-2.898,1.67
				c-0.262,0.154-0.408,0.152-0.403-0.254c0.019-1.51,0.022-3.011,0.031-4.515c1.07-0.616,2.141-1.215,3.211-1.857
				c0.381-0.229,0.508-0.132,0.498,0.384C198.712,177.719,198.717,178.956,198.733,180.186z M191.227,184.436
				c0.008,0.489-0.102,0.759-0.496,0.974c-0.913,0.498-1.828,1.028-2.742,1.581c-0.386,0.234-0.505,0.11-0.503-0.393
				c0.012-2.883,0.005-5.756,0.006-8.632c0-0.316-0.033-0.641,0.335-0.853c2.357-1.357,4.713-2.719,7.183-4.145
				c0,1.686,0,3.323,0,4.961c-1.054,0.617-2.11,1.273-3.164,1.835c-0.524,0.28-0.655,0.604-0.635,1.245
				C191.246,182.132,191.208,183.301,191.227,184.436z M187.487,162.987c-0.002-0.514,0.138-0.762,0.512-0.966
				c0.785-0.427,1.571-0.896,2.356-1.354c0.969-0.565,0.86-0.359,0.866-1.69c0.005-1.026,0.016-2.056-0.005-3.066
				c-0.011-0.528,0.13-0.812,0.537-1.034c0.895-0.488,1.791-1.005,2.685-1.551c0.419-0.256,0.583-0.181,0.566,0.421
				c-0.038,1.461-0.001,2.783-0.009,4.244c1.265-0.73,2.462-1.422,3.727-2.152c0,1.597,0.012,3.093-0.021,4.614
				c-0.003,0.131-0.306,0.526-0.472,0.625c-2.312,1.362-4.625,2.654-6.936,4.145c-0.018,1.44-0.077,2.905-0.071,4.331
				c0.031,0.456-0.118,0.709-0.477,0.905c-0.913,0.501-1.827,1.028-2.74,1.582c-0.372,0.226-0.523,0.163-0.52-0.357
				C187.498,168.778,187.5,165.878,187.487,162.987z M180.065,231.5c1.149-0.663,2.288-1.331,3.427-1.959
				c0.089-0.049,0.248,0.137,0.25,0.288c0.02,1.349,0.019,2.711-0.001,4.083c-0.002,0.146-0.171,0.506-0.265,0.563
				c-1.125,0.678-2.25,1.318-3.411,1.988C180.065,234.789,180.065,233.197,180.065,231.5z M183.761,273.598
				c0.005,0.479-0.148,0.723-0.492,0.916c-0.932,0.521-1.863,1.059-2.795,1.614c-0.327,0.195-0.463,0.123-0.45-0.333
				c0.019-0.643,0.005-1.269,0.005-1.902c0-0.658-0.028-1.303,0.018-1.981c0.013-0.193,0.239-0.625,0.374-0.708
				c0.967-0.6,1.936-1.129,2.904-1.704c0.344-0.205,0.44-0.047,0.437,0.372C183.752,271.119,183.748,272.364,183.761,273.598z
				 M183.742,258.633c-0.005,0.211-0.189,0.692-0.296,0.758c-1.108,0.683-2.217,1.307-3.417,2c0-1.176,0-2.283,0-3.391
				c0-1.579,0-1.586,1.176-2.256c0.89-0.507,1.78-0.994,2.671-1.49C183.62,255.798,183.827,257.155,183.742,258.633z
				 M186.831,252.509c-0.982,0.523-1.967,1.15-2.95,1.734c-0.208-1.327-0.11-2.874-0.117-4.337c0.006-0.468-0.113-0.585-0.476-0.366
				c-0.932,0.563-1.864,1.103-2.795,1.603c-0.156,0.084-0.437-0.002-0.44-0.145c-0.033-1.462-0.02-2.952-0.02-4.546
				c0.995-0.574,1.939-1.116,2.883-1.666c0.929-0.541,0.841-0.365,0.843-1.64c0.004-2.963,0-5.84,0.001-8.812
				c0.846-0.488,1.643-0.948,2.44-1.409c1.289-0.744,1.289-0.744,1.289,0.97c0,5.775-0.008,11.555,0.011,17.318
				C187.501,251.906,187.371,252.222,186.831,252.509z M194.449,263.086c-4.092,2.125-3.108,3.024-3.22-2.505
				c0.008-0.482-0.115-0.573-0.473-0.356c-4.196,2.273-3.089,2.947-3.271-2.406c-0.013-0.574,0.143-0.827,0.57-1.07
				c2.315-1.314,4.63-2.665,6.944-4.003c-0.001,3.087-0.012,6.181,0.005,9.257C195.008,262.575,194.88,262.853,194.449,263.086z
				 M198.726,250.575c-1.259,0.727-2.485,1.435-3.711,2.142c-0.006-3.13-0.008-6.261-0.022-9.387
				c-0.002-0.414,0.12-0.619,0.421-0.788c0.967-0.542,1.935-1.106,2.903-1.672c0.256-0.15,0.412-0.159,0.412,0.246
				C198.723,244.234,198.726,247.345,198.726,250.575z M198.736,234.945c0.003,0.532-0.104,0.796-0.521,1.021
				c-0.895,0.482-1.793,1.002-2.688,1.552c-0.397,0.244-0.552,0.192-0.538-0.382c0.03-1.211-0.01-2.385,0.017-3.594
				c0.012-0.544-0.105-0.675-0.522-0.418c-0.914,0.562-1.829,1.049-2.743,1.602c-0.372,0.226-0.529,0.16-0.521-0.362
				c0.018-1.254,0.018-2.498,0-3.731c-0.007-0.493,0.154-0.707,0.494-0.896c0.951-0.528,1.902-1.1,2.853-1.636
				c0.286-0.161,0.44-0.34,0.436-0.776c-0.014-1.429-0.005-2.871-0.005-4.398c-2.309,1.204-4.606,2.622-6.915,3.95
				c-0.453,0.268-0.613,0.185-0.598-0.436c0.029-1.211,0.022-2.403,0.004-3.587c-0.008-0.502,0.13-0.769,0.51-0.978
				c0.896-0.493,1.793-1.049,2.688-1.535c0.392-0.213,0.546-0.432,0.544-1.002c-0.055-6.399,0.074-12.903-0.056-19.253
				c-1.06,0.612-2.083,1.174-3.104,1.805c-0.461,0.285-0.601,0.161-0.588-0.451c0.029-1.378,0.009-2.73,0.009-4.189
				c2.514-1.451,4.972-2.87,7.505-4.333c0-1.404-0.001-2.712,0-4.021c0.001-0.981,0.002-0.982,0.745-1.412
				c0.823-0.476,1.647-0.925,2.469-1.436c0.418-0.26,0.527-0.121,0.524,0.416c-0.018,3.111-0.005,6.139-0.007,9.249
				c1.275-0.736,2.504-1.446,3.734-2.156c-0.011,1.725-0.021,3.45-0.032,5.175c-0.116,0.028-0.23,0.027-0.345,0.093
				c-2.351,1.399-4.704,2.614-7.051,4.127c0,1.615,0,3.211,0,4.915c0.982-0.567,1.946-1.124,2.91-1.68
				c0.782-0.451,0.783-0.45,0.783,0.572c0,4.663,0.001,9.292,0.001,13.96c2.325-1.345,4.599-2.639,6.918-4.005
				c0.423-0.249,0.582-0.198,0.565,0.406c-0.033,1.164-0.034,2.313,0,3.438c0.018,0.616-0.108,0.904-0.607,1.183
				c-2.306,1.289-4.563,2.623-6.876,3.954C198.729,228.795,198.716,231.859,198.736,234.945z M213.674,236.994
				c-3.555,2.054-7.073,4.071-10.624,6.146c-0.449,0.262-0.593,0.189-0.59-0.431c0.019-4.473,0.02-8.937-0.001-13.387
				c-0.003-0.666,0.163-0.903,0.629-1.169c3.328-1.897,6.657-3.817,9.986-5.767c0.486-0.285,0.615-0.178,0.612,0.467
				C213.663,227.589,213.676,232.266,213.674,236.994z M172.517,180.981c-0.005,0.003-0.01,0.006-0.015,0.009
				c0,0.007,0,0.014,0,0.02c0.005-0.003,0.01-0.006,0.015-0.009C172.517,180.995,172.517,180.988,172.517,180.981z M150.577,253.503
				c-0.37,0.22-0.517,0.172-0.514-0.354c0.015-2.905,0.014-5.801,0.002-8.691c-0.002-0.505,0.13-0.758,0.51-0.975
				c2.172-1.239,4.345-2.492,6.517-3.765c0.393-0.23,0.493-0.093,0.489,0.404c-0.014,1.461,0.006,2.903,0.012,4.352
				c2.288-1.323,4.577-2.659,6.865-3.956c0.435-0.247,0.616-0.482,0.6-1.104c-0.034-1.379-0.016-2.791-0.018-4.19
				c-2.488,1.188-4.969,2.91-7.466,4.176c0-1.477-0.012-2.879,0.007-4.298c0.006-0.481-0.116-0.581-0.472-0.367
				c-0.914,0.548-1.829,1.038-2.743,1.598c-0.41,0.251-0.534,0.136-0.531-0.409c0.019-3.114,0.006-6.134,0.008-9.248
				c-2.311,1.338-4.585,2.626-6.892,3.991c-0.486,0.287-0.64,0.167-0.622-0.482c0.033-1.163,0.032-2.311,0-3.437
				c-0.017-0.601,0.134-0.86,0.589-1.12c3.555-2.066,7.1-4.006,10.655-6.191c0-3.2-0.003-6.316,0.003-9.437
				c0.001-0.409-0.163-0.388-0.417-0.24c-0.969,0.566-1.938,1.131-2.907,1.674c-0.311,0.174-0.419,0.399-0.412,0.799
				c0.016,1.5-0.003,2.895,0.003,4.432c-0.882,0.509-1.683,0.972-2.484,1.434c-1.289,0.744-1.289,0.744-1.289-0.984
				c0-1.064,0-2.128,0-3.261c-1.097,0.633-2.101,1.251-3.102,1.775c-0.523,0.273-0.648,0.598-0.642,1.247
				c-0.002,3.045,0.063,6.02-0.031,9.12c-2.48,1.432-4.906,2.833-7.372,4.256c-0.115,1.537-0.003,2.892-0.058,4.391
				c-0.013,0.577,0.158,0.611,0.548,0.373c0.914-0.557,1.829-1.053,2.743-1.597c0.331-0.197,0.455-0.102,0.451,0.341
				c-0.013,1.251-0.019,2.498,0.003,3.729c0.009,0.53-0.166,0.757-0.526,0.956c-0.878,0.485-1.756,1.039-2.633,1.502
				c-0.46,0.243-0.592,0.527-0.587,1.126c0.049,3.039-0.05,6.139,0.048,9.151c1.103-0.631,2.136-1.255,3.229-1.846
				c0.153-0.082,0.43-0.033,0.433,0.089c0.03,1.51,0.02,3.044,0.02,4.663c-1.262,0.728-2.459,1.42-3.663,2.115
				c0,1.704,0,3.315,0,4.976c1.099-0.634,2.14-1.216,3.18-1.846c0.387-0.235,0.508-0.126,0.5,0.382
				c-0.02,1.254,0.001,2.486-0.009,3.736c-0.003,0.432,0.109,0.549,0.447,0.347c0.951-0.569,1.902-1.118,2.853-1.647
				c0.345-0.192,0.443-0.449,0.439-0.868c0.004-1.445-0.038-2.879,0.032-4.358c1.254-0.724,2.437-1.407,3.665-2.116
				c0.058,1.403,0.032,2.81,0.025,4.246c-0.007,0.486,0.091,0.657,0.492,0.412c0.932-0.569,1.865-1.106,2.798-1.616
				c0.385-0.211,0.505-0.461,0.498-0.964c-0.019-1.421-0.005-2.862-0.004-4.295C152.756,252.252,151.666,252.855,150.577,253.503z
				 M146.33,255.94c-1.187,0.685-2.313,1.346-3.439,1.967c-0.096,0.053-0.267-0.107-0.269-0.25c-0.02-1.469-0.012-2.954-0.012-4.537
				c1.194-0.689,2.287-1.333,3.38-1.933c0.116-0.064,0.324,0.075,0.326,0.218C146.34,252.872,146.33,254.359,146.33,255.94z
				 M149.56,239.1c-0.748,0.407-1.497,0.853-2.246,1.293c-1.097,0.645-0.971,0.392-0.978,1.833
				c-0.006,1.026-0.012,2.052,0.003,3.066c0.007,0.461-0.117,0.721-0.476,0.92c-0.931,0.516-1.863,1.053-2.794,1.614
				c-0.364,0.219-0.473,0.088-0.468-0.376c0.014-1.469,0.005-2.925,0.005-4.386c-0.001-1.387,0.012-2.783-0.008-4.159
				c-0.008-0.538,0.093-0.836,0.546-1.091c2.136-1.206,4.273-2.447,6.409-3.695c0.368-0.215,0.527-0.164,0.518,0.364
				c-0.021,1.229-0.021,2.447,0,3.652C150.081,238.645,149.934,238.897,149.56,239.1z M206.916,176.056
				c8.491-4.902,16.969-9.796,25.461-14.7c0-11.3,0-22.578,0-33.876c0-1.026-0.001-1.028-0.768-0.585
				c-8.23,4.751-16.46,9.503-24.691,14.255c-0.717,0.414-0.718,0.417-0.718,1.365c0,10.999,0,21.997,0,32.996
				C206.202,176.467,206.202,176.468,206.916,176.056z M210.574,144.008c5.796-3.328,11.592-6.67,17.388-10.044
				c0.579-0.337,0.696-0.138,0.692,0.573c-0.023,3.865-0.011,7.71-0.011,11.562c0,3.852-0.013,7.712,0.011,11.55
				c0.005,0.714-0.168,0.993-0.687,1.291c-5.796,3.324-11.592,6.672-17.388,10.037c-0.488,0.283-0.658,0.227-0.657-0.468
				c0.018-7.763,0.018-15.516,0-23.258C209.92,144.564,210.079,144.292,210.574,144.008z M139.533,214.974
				c8.267-4.794,16.533-9.56,24.8-14.333c0.713-0.411,0.714-0.414,0.714-1.37c0-10.999,0-21.997-0.001-32.995
				c0-0.948-0.001-0.95-0.717-0.536c-8.477,4.929-16.951,9.717-25.428,14.721c-0.085,11.378,0.001,22.654-0.042,34.009
				C138.859,215.173,139.006,215.28,139.533,214.974z M142.598,184.047c-0.001-0.608,0.152-0.88,0.6-1.138
				c5.85-3.363,11.701-6.739,17.551-10.134c0.476-0.276,0.576-0.088,0.573,0.489c-0.015,3.933-0.008,7.854-0.008,11.779
				c0,3.852-0.011,7.71,0.011,11.549c0.004,0.649-0.145,0.906-0.623,1.181c-5.832,3.347-11.664,6.716-17.496,10.099
				c-0.44,0.255-0.61,0.202-0.609-0.422C142.61,199.642,142.61,191.842,142.598,184.047z M164.386,255.471
				c-8.496,4.928-16.986,9.822-25.483,14.729c-0.088,11.396,0.002,22.678-0.043,34.05c-0.001,0.706,0.142,0.813,0.672,0.506
				c8.509-4.936,17.005-9.833,25.516-14.747c0-11.348-0.005-22.673,0.011-34.028C165.06,255.275,164.916,255.163,164.386,255.471z
				 M160.688,287.556c-5.814,3.341-11.628,6.696-17.443,10.074c-0.512,0.298-0.65,0.16-0.649-0.503
				c0.014-7.737,0.015-15.465-0.001-23.185c-0.001-0.688,0.132-0.997,0.672-1.303c2.925-1.655,5.851-3.362,8.776-5.051
				c2.889-1.667,5.778-3.321,8.666-5.017c0.489-0.287,0.616-0.162,0.614,0.475c-0.015,7.786-0.015,15.563,0.001,23.331
				C161.327,287.047,161.146,287.293,160.688,287.556z M232.339,171.316c-1.249,0.721-2.447,1.413-3.694,2.133
				c0-1.505-0.008-2.911,0.005-4.33c0.004-0.465-0.111-0.589-0.475-0.369c-0.932,0.564-1.865,1.103-2.798,1.615
				c-0.371,0.204-0.473,0.47-0.469,0.922c0.013,1.236,0.016,2.478-0.002,3.732c-0.007,0.484,0.122,0.565,0.478,0.35
				c0.914-0.554,1.829-1.038,2.743-1.604c0.424-0.263,0.534-0.117,0.524,0.416c-0.023,1.207-0.026,2.405,0,3.584
				c0.013,0.557-0.152,0.786-0.546,1.009c-2.325,1.317-4.583,2.64-6.918,3.985c0,1.608-0.01,3.144,0.019,4.655
				c0.002,0.126,0.27,0.19,0.419,0.11c0.859-0.462,1.719-0.976,2.578-1.47c0.706-0.406,0.708-0.406,0.708,0.569
				c0.001,2.755,0.009,5.506-0.006,8.27c-0.003,0.542,0.128,0.656,0.536,0.407c0.877-0.538,1.756-1.001,2.633-1.539
				c0.422-0.259,0.591-0.179,0.577,0.415c-0.026,1.111-0.038,2.218,0.003,3.289c0.027,0.703-0.117,1.042-0.693,1.362
				c-2.269,1.229-4.511,2.655-6.782,3.853c0.003-3.066-0.012-6.068,0.012-9.14c0.005-0.614-0.14-0.725-0.594-0.443
				c-0.877,0.546-1.756,1.049-2.633,1.521c-0.422,0.227-0.572,0.477-0.567,1.067c0.053,3.056-0.056,6.171,0.051,9.197
				c1.241-0.747,2.43-1.372,3.659-1.99c0.058,1.626,0.091,3.168,0.073,4.865c1.081-0.624,2.069-1.143,3.051-1.781
				c0.587-0.381,0.714-0.169,0.69,0.556c-0.039,1.166-0.003,2.293-0.013,3.445c-0.004,0.423,0.092,0.566,0.438,0.358
				c0.951-0.572,1.902-1.121,2.853-1.648c0.336-0.186,0.453-0.421,0.448-0.854c-0.012-1.139-0.004-2.29-0.003-3.437
				c0.001-0.948,0.002-0.95,0.721-1.366c0.981-0.567,1.962-1.133,2.947-1.702c0.167-4.889,0.005-9.616,0.067-14.459
				c0.001-0.467-0.151-0.49-0.465-0.303c-0.914,0.544-1.829,1.041-2.743,1.597c-0.411,0.25-0.543,0.115-0.534-0.421
				c0.02-1.206,0.02-2.401,0-3.584c-0.008-0.508,0.133-0.762,0.511-0.969c0.859-0.47,1.72-1.017,2.578-1.469
				c0.483-0.255,0.668-0.524,0.661-1.223C232.331,177.446,232.434,174.347,232.339,171.316z M172.5,230.892
				c0.007-1.21,0.017-2.422,0.02-3.63c0.004-1.425,0.001-1.423,1.072-2.041c0.87-0.502,1.739-1.004,2.626-1.516
				c0-3.367,0-6.617,0-9.925c-1.216,0.702-2.398,1.382-3.58,2.073c-0.06,0.035-0.12,0.149-0.18,0.232
				c0.02,0.079,0.058,0.148,0.058,0.238c0.004,2.995-0.001,5.994,0.01,8.984c0.002,0.437-0.147,0.618-0.432,0.779
				c-0.95,0.538-1.9,1.082-2.85,1.65c-0.36,0.215-0.476,0.092-0.469-0.379c0.017-1.227-0.008-2.432,0.012-3.661
				c0.008-0.501-0.103-0.631-0.495-0.401c-2.156,1.264-4.312,2.507-6.468,3.735c-0.37,0.211-0.523,0.44-0.514,0.959
				c0.022,1.205,0.021,2.424,0,3.654c-0.009,0.512,0.118,0.621,0.502,0.388c0.913-0.554,1.827-1.044,2.74-1.598
				c0.387-0.234,0.507-0.108,0.502,0.395c-0.015,1.462-0.001,2.908,0.002,4.361C167.536,233.66,170.018,232.288,172.5,230.892z
				 M172.448,216.099c0.003-0.004,0.006-0.009,0.009-0.013c0-0.001,0-0.001-0.001-0.002L172.448,216.099z M165.055,235.191
				c-0.005,0.003-0.01,0.006-0.015,0.009c0,0.007,0,0.014,0,0.021c0.005-0.003,0.01-0.005,0.015-0.008
				C165.055,235.206,165.055,235.199,165.055,235.191z M229.221,242.993c0.894-0.476,1.791-1.038,2.686-1.532
				c0.357-0.197,0.482-0.437,0.475-0.909c-0.018-1.256-0.014-2.526-0.002-3.8c0.004-0.41-0.107-0.499-0.415-0.316
				c-0.968,0.575-1.937,1.138-2.905,1.675c-0.359,0.199-0.424,0.469-0.421,0.873c0.01,1.212-0.013,2.445,0.01,3.649
				c0.01,0.543-0.142,0.801-0.541,1.019c-0.895,0.488-1.791,1.042-2.686,1.535c-0.368,0.202-0.521,0.433-0.518,0.958
				c0.015,2.867,0.017,5.741-0.001,8.626c-0.004,0.573,0.161,0.605,0.549,0.371c1.06-0.639,2.12-1.233,3.18-1.846
				c1.096-0.634,2.193-1.277,3.289-1.894c0.315-0.177,0.466-0.373,0.46-0.837c-0.017-1.257-0.018-2.524,0-3.801
				c0.007-0.495-0.141-0.545-0.487-0.338c-0.913,0.549-1.828,1.046-2.741,1.597c-0.377,0.227-0.522,0.131-0.514-0.383
				c0.018-1.18,0.026-2.355-0.002-3.507C228.624,243.55,228.755,243.241,229.221,242.993z M168.771,247.968c0,0.007,0,0.014,0,0.021
				c0.005-0.003,0.01-0.006,0.015-0.008c0-0.007,0-0.014,0-0.021C168.781,247.962,168.776,247.965,168.771,247.968z
				 M172.518,206.412c0-0.16-0.04-0.296-0.069-0.49c-1.122,0.648-2.216,1.288-3.31,1.906c-0.356,0.201-0.361,0.497-0.361,0.837
				c0.002,2.9,0.011,5.796-0.008,8.708c-0.004,0.578,0.172,0.602,0.554,0.37c1.039-0.562,2.112-1.391,3.127-1.657
				c0.024-0.204,0.065-0.416,0.066-0.605C172.521,212.456,172.521,209.433,172.518,206.412z M172.45,216.096
				c-0.001,0.003,0.007-0.012,0.007-0.012c-0.002,0.001-0.004,0.001-0.006,0.002C172.451,216.089,172.45,216.092,172.45,216.096z
				 M176.233,248.637c0,0.007,0,0.013,0,0.019c0.005-0.003,0.01-0.006,0.015-0.009c0-0.006,0-0.013,0-0.019
				C176.243,248.631,176.238,248.633,176.233,248.637z M175.778,243.926c-2.331,1.363-4.661,2.705-6.992,4.054
				c-0.002,1.427,0.011,2.846-0.016,4.286c-0.011,0.564,0.146,0.617,0.54,0.385c2.308-1.354,4.616-2.68,6.923-4.016
				c0.006-1.457,0.001-2.907,0.026-4.373C176.267,243.764,176.122,243.725,175.778,243.926z M164.667,215.385
				c-0.985,0.583-1.97,1.15-2.954,1.707c-0.272,0.154-0.401,0.343-0.398,0.729c0.009,1.332,0.011,2.669-0.001,4.013
				c-0.004,0.437,0.153,0.45,0.437,0.278c0.492-0.298,0.985-0.572,1.477-0.857c0.474-0.274,0.951-0.511,1.421-0.844
				c0.143-0.101,0.376-0.525,0.38-0.7c0.032-1.355,0.014-2.682,0.02-4.023C165.05,215.324,164.957,215.212,164.667,215.385z
				 M142.215,218.411c-0.983,0.525-1.969,1.097-2.952,1.7c-0.132,0.081-0.367,0.48-0.37,0.632c-0.028,1.494-0.017,2.966-0.017,4.558
				c1.195-0.69,2.305-1.318,3.414-1.991c0.107-0.065,0.296-0.452,0.299-0.609c0.024-1.35,0.029-2.691-0.002-4.008
				C142.582,218.517,142.348,218.339,142.215,218.411z M172.517,230.913c0-0.01,0-0.021,0-0.031
				c-0.006,0.003-0.012,0.006-0.017,0.01c0,0.01,0,0.021,0,0.031C172.506,230.92,172.511,230.916,172.517,230.913z M176.232,193.781
				c0.005-0.003,0.011-0.006,0.016-0.009c0-0.007,0-0.014,0-0.021c-0.005,0.003-0.011,0.006-0.016,0.009
				C176.232,193.767,176.232,193.774,176.232,193.781z M172.515,200.282c-0.003,0.422,0.077,0.579,0.425,0.371
				c0.966-0.577,1.932-1.131,2.898-1.674c0.3-0.169,0.423-0.373,0.418-0.787c-0.018-1.464-0.018-2.939-0.024-4.411
				c-1.238,0.715-2.477,1.43-3.715,2.144C172.518,197.377,172.527,198.823,172.515,200.282z M164.626,205.442
				c-0.966,0.573-1.933,1.132-2.899,1.674c-0.311,0.174-0.417,0.406-0.414,0.802c0.009,1.308,0.01,2.62-0.001,3.939
				c-0.003,0.39,0.124,0.429,0.396,0.269c0.984-0.58,1.969-1.149,2.954-1.705c0.281-0.158,0.394-0.362,0.387-0.735
				c-0.012-0.649-0.003-1.311-0.004-1.967c0-0.656-0.009-1.308,0.003-1.971C165.057,205.334,164.929,205.262,164.626,205.442z
				 M157.578,249.459c0,0.006,0,0.012,0,0.018c0.005-0.003,0.01-0.006,0.016-0.009c0-0.006,0-0.012,0-0.018
				C157.588,249.452,157.583,249.456,157.578,249.459z M153.854,251.618l-0.008-0.005c0,0.006,0,0.012,0,0.018
				c0.005-0.003,0.01-0.006,0.016-0.009c0-0.006,0-0.012,0-0.018c-0.005,0.003-0.01,0.006-0.016,0.009
				C153.846,251.614,153.85,251.616,153.854,251.618z M157.577,244.502c0.005-0.003,0.01-0.006,0.015-0.009c0-0.007,0-0.014,0-0.021
				c-0.005,0.003-0.01,0.006-0.015,0.009C157.577,244.488,157.577,244.495,157.577,244.502z M153.861,246.648
				c0,1.677,0,3.317,0,4.957c1.239-0.715,2.478-1.431,3.716-2.146c0-1.652,0-3.304,0-4.956
				C156.361,245.204,155.145,245.906,153.861,246.648z M172.501,185.967c0,0.006,0,0.012,0,0.018
				c0.005-0.003,0.011-0.006,0.016-0.009c0-0.006,0-0.012,0-0.018C172.512,185.961,172.507,185.964,172.501,185.967z
				 M169.185,182.894c-0.309,0.172-0.415,0.395-0.411,0.796c0.012,1.256,0.02,2.514-0.003,3.79c-0.01,0.545,0.164,0.553,0.523,0.34
				c1.069-0.637,2.138-1.238,3.207-1.852c0-1.652,0-3.305,0.001-4.957C171.396,181.64,170.291,182.278,169.185,182.894z
				 M172.502,195.915c0,0.006,0,0.013,0,0.019c0.005-0.003,0.01-0.006,0.015-0.009c0-0.006,0-0.013,0-0.019
				C172.512,195.91,172.507,195.912,172.502,195.915z M169.281,192.801c-0.376,0.208-0.519,0.447-0.51,0.962
				c0.023,1.205,0.023,2.425,0,3.657c-0.01,0.527,0.135,0.598,0.51,0.372c1.073-0.646,2.147-1.254,3.221-1.877
				c0-1.652,0-3.304,0-4.957C171.428,191.576,170.354,192.208,169.281,192.801z M216.997,175.208
				c-0.968,0.568-1.936,1.13-2.903,1.675c-0.299,0.169-0.427,0.378-0.423,0.792c0.012,1.307-0.005,2.633,0.017,3.934
				c0.003,0.167,0.169,0.375,0.264,0.324c1.127-0.617,2.254-1.28,3.453-1.972c0-1.587-0.005-3.043,0.003-4.507
				C217.41,175.049,217.256,175.056,216.997,175.208z M172.478,260.742c0.005-0.003,0.011-0.006,0.016-0.009
				c0,0-0.001-0.001-0.001-0.001c0-0.008,0-0.015,0-0.023c-0.005,0.003-0.01,0.006-0.016,0.009
				C172.478,260.726,172.478,260.734,172.478,260.742z M168.777,263.377c0.008,1.361-0.005,2.735,0.016,4.087
				c0.002,0.139,0.179,0.288,0.278,0.234c1.128-0.623,2.256-1.285,3.407-1.949c0-1.726,0-3.367,0-5.008
				c-1.072,0.632-2.145,1.266-3.218,1.894C169.013,262.781,168.775,262.895,168.777,263.377z M209.571,229.422
				c-0.49,0.229-0.985,0.547-1.479,0.831c-0.493,0.284-0.987,0.576-1.48,0.85c-0.258,0.143-0.415,0.321-0.413,0.723
				c0.009,1.335-0.009,2.685,0.019,4.008c0.003,0.16,0.221,0.321,0.343,0.254c1.004-0.543,2.01-1.123,3.014-1.74
				c0.122-0.075,0.336-0.489,0.34-0.655c0.028-1.355,0.028-2.696,0-4.018C209.912,229.515,209.7,229.362,209.571,229.422z
				 M171.938,241.174c0.441-0.241,0.609-0.485,0.594-1.103c-0.034-1.379-0.013-2.793-0.014-4.192
				c1.238-0.722,2.476-1.445,3.714-2.167c0-1.657,0-3.314,0-4.943c-1.292,0.746-2.503,1.445-3.714,2.144
				c-0.006,1.651-0.011,3.302-0.017,4.953c-1.069,0.616-2.139,1.254-3.208,1.835c-0.415,0.226-0.53,0.484-0.522,1.014
				c0.021,1.414,0.003,2.852,0.001,4.281c-3.726,2.157-7.452,4.314-11.177,6.471c-0.007,1.457-0.002,2.909-0.026,4.376
				c-0.008,0.501,0.145,0.529,0.487,0.331c3.572-2.078,7.145-4.14,10.717-6.206c0.005-1.654,0.011-3.309,0.016-4.963
				C169.837,242.39,170.888,241.748,171.938,241.174z M214.311,161.835c3.526-2.064,7.036-4.075,10.563-6.113
				c0.101-4.77-0.004-9.393,0.051-14.134c0.004-0.718-0.161-0.807-0.683-0.502c-3.527,2.111-7.041,3.987-10.567,6.172
				c-0.001,4.709,0.012,9.384-0.012,14.104C213.659,162.05,213.817,162.124,214.311,161.835z M146.328,200.331
				c-0.002,0.564,0.119,0.691,0.559,0.429c1.7-1.013,3.4-1.976,5.101-2.958c1.664-0.961,3.328-1.938,4.991-2.87
				c0.433-0.243,0.607-0.467,0.604-1.106c-0.02-4.498-0.017-9.01-0.003-13.528c0.002-0.543-0.119-0.652-0.528-0.414
				c-3.4,1.979-6.801,3.943-10.202,5.888c-0.42,0.24-0.526,0.505-0.525,1.03C146.339,191.305,146.341,195.814,146.328,200.331z
				 M156.947,269.73c-3.529,2.07-7.041,4.079-10.573,6.12c-0.108,4.766,0.003,9.386-0.051,14.122
				c-0.003,0.699,0.137,0.836,0.673,0.521c3.532-2.112,7.044-4,10.577-6.175c0.001-4.705-0.011-9.379,0.011-14.093
				C157.587,269.563,157.46,269.429,156.947,269.73z"/>
		</g>
		<g>
			<path style="fill:#FAFAFA;" d="M150.351,351.467c0.033-0.989,0.154-1.973,0.362-2.949c0.208-0.977,0.515-1.898,0.92-2.764
				c0.404-0.865,0.91-1.66,1.518-2.383c0.607-0.723,1.327-1.324,2.159-1.805c0.82-0.474,1.535-0.705,2.143-0.691
				c0.607,0.012,1.112,0.223,1.517,0.629c0.404,0.407,0.714,0.974,0.927,1.698c0.215,0.725,0.338,1.571,0.372,2.538
				c0.011,0.323,0.02,0.682,0.025,1.076c0.006,0.396,0.008,0.805,0.008,1.229c0,0.426-0.002,0.838-0.008,1.238
				c-0.006,0.402-0.015,0.771-0.025,1.105c-0.034,0.955-0.146,1.902-0.338,2.844c-0.191,0.941-0.478,1.834-0.86,2.678l1.266,2.074
				c0.034,0.068,0.051,0.135,0.051,0.205c0.011,0.166-0.021,0.324-0.093,0.469c-0.074,0.147-0.16,0.248-0.262,0.307l-1.602,0.926
				c-0.202,0.1-0.352,0.099-0.446-0.002c-0.096-0.101-0.172-0.186-0.227-0.258l-0.541-0.883c-0.28,0.301-0.579,0.577-0.894,0.828
				c-0.314,0.25-0.652,0.48-1.012,0.688c-0.832,0.48-1.552,0.715-2.159,0.701c-0.607-0.014-1.113-0.218-1.518-0.617
				c-0.405-0.398-0.712-0.965-0.92-1.701c-0.208-0.738-0.329-1.581-0.362-2.531c-0.012-0.322-0.02-0.682-0.025-1.076
				c-0.006-0.395-0.009-0.804-0.009-1.229c0-0.424,0.003-0.836,0.009-1.238C150.331,352.17,150.339,351.803,150.351,351.467z
				 M157.992,347.186c-0.046-1.221-0.307-2.035-0.784-2.443c-0.479-0.407-1.111-0.384-1.898,0.07
				c-0.787,0.455-1.42,1.162-1.897,2.121c-0.479,0.959-0.74,2.076-0.784,3.348c-0.023,0.672-0.034,1.41-0.034,2.215
				c0,0.805,0.011,1.53,0.034,2.174c0.044,1.221,0.306,2.031,0.784,2.431c0.478,0.399,1.11,0.372,1.897-0.083
				c0.786-0.454,1.419-1.157,1.898-2.107c0.477-0.952,0.738-2.065,0.784-3.336c0.023-0.67,0.034-1.41,0.034-2.215
				C158.026,348.555,158.014,347.83,157.992,347.186z"/>
			<path style="fill:#FAFAFA;" d="M167.32,334.892c1.405-0.812,2.474-0.925,3.204-0.343c0.73,0.582,1.096,1.764,1.096,3.547
				c0,1.264-0.188,2.451-0.564,3.561c-0.376,1.108-0.931,2.09-1.661,2.945l2.327,5.07c0.034,0.084,0.051,0.17,0.051,0.256
				c0,0.156-0.036,0.312-0.109,0.467c-0.073,0.154-0.16,0.261-0.262,0.319l-1.434,0.827c-0.225,0.131-0.391,0.145-0.497,0.041
				c-0.107-0.103-0.183-0.21-0.229-0.322l-2.209-4.775l-2.243,1.295v6.051c0,0.19-0.045,0.381-0.135,0.57
				c-0.091,0.191-0.197,0.322-0.32,0.393l-1.367,0.789c-0.123,0.071-0.23,0.064-0.32-0.022c-0.09-0.086-0.135-0.225-0.135-0.416
				v-16.776c0-0.19,0.045-0.38,0.135-0.571c0.09-0.189,0.197-0.321,0.32-0.393L167.32,334.892z M164.79,344.533l2.445-1.412
				c0.642-0.37,1.152-0.838,1.535-1.406c0.382-0.566,0.573-1.334,0.573-2.305c0-0.969-0.191-1.508-0.573-1.615
				c-0.383-0.109-0.894,0.021-1.535,0.392l-2.445,1.412V344.533z"/>
			<path style="fill:#FAFAFA;" d="M184.913,337.149c0.021-0.238,0.081-0.441,0.177-0.609c0.096-0.167,0.199-0.283,0.312-0.349
				l1.366-0.788c0.124-0.072,0.233-0.07,0.329,0.005s0.138,0.218,0.127,0.433c-0.034,0.729-0.149,1.506-0.346,2.33
				c-0.197,0.823-0.498,1.637-0.902,2.442c-0.405,0.806-0.917,1.567-1.535,2.288c-0.618,0.721-1.366,1.334-2.243,1.84
				c-0.776,0.449-1.462,0.667-2.059,0.656c-0.596-0.01-1.102-0.212-1.518-0.603c-0.417-0.392-0.739-0.963-0.97-1.713
				s-0.368-1.631-0.413-2.645c-0.023-0.643-0.034-1.365-0.034-2.16c0-0.797,0.011-1.53,0.034-2.201
				c0.045-1.065,0.183-2.105,0.413-3.122c0.23-1.016,0.553-1.959,0.97-2.832c0.416-0.872,0.922-1.657,1.518-2.356
				c0.597-0.698,1.282-1.271,2.059-1.721c0.877-0.506,1.625-0.756,2.243-0.75c0.618,0.007,1.13,0.18,1.535,0.517
				c0.404,0.337,0.705,0.809,0.902,1.413c0.196,0.605,0.312,1.244,0.346,1.917c0.011,0.202-0.031,0.396-0.127,0.58
				c-0.096,0.185-0.205,0.313-0.329,0.384l-1.366,0.789c-0.112,0.064-0.219,0.07-0.32,0.016c-0.102-0.053-0.163-0.185-0.185-0.398
				c-0.034-0.326-0.113-0.619-0.237-0.876c-0.123-0.258-0.292-0.454-0.506-0.591c-0.214-0.137-0.483-0.192-0.81-0.17
				c-0.326,0.025-0.708,0.164-1.146,0.416c-0.439,0.254-0.821,0.578-1.148,0.975c-0.326,0.395-0.599,0.83-0.818,1.303
				c-0.219,0.473-0.388,0.986-0.506,1.539c-0.118,0.553-0.188,1.104-0.21,1.653c-0.024,0.671-0.034,1.405-0.034,2.201
				s0.011,1.517,0.034,2.161c0.021,0.542,0.092,1.016,0.21,1.424c0.118,0.409,0.287,0.722,0.506,0.941
				c0.22,0.221,0.492,0.34,0.818,0.359c0.326,0.02,0.709-0.098,1.148-0.352c0.438-0.252,0.82-0.555,1.146-0.908
				c0.326-0.352,0.599-0.723,0.818-1.108c0.219-0.386,0.391-0.779,0.514-1.18C184.8,337.897,184.878,337.514,184.913,337.149z"/>
			<path style="fill:#FAFAFA;" d="M188.791,329.274c0.034-0.99,0.155-1.973,0.363-2.949c0.208-0.978,0.514-1.898,0.919-2.764
				c0.404-0.865,0.911-1.66,1.518-2.384c0.607-0.723,1.326-1.323,2.159-1.804c0.82-0.475,1.534-0.705,2.141-0.691
				c0.607,0.012,1.114,0.223,1.519,0.629c0.405,0.406,0.715,0.973,0.928,1.697c0.214,0.726,0.338,1.572,0.371,2.539
				c0.012,0.322,0.02,0.682,0.025,1.076c0.006,0.395,0.009,0.805,0.009,1.229c0,0.425-0.003,0.838-0.009,1.238
				c-0.006,0.402-0.014,0.77-0.025,1.105c-0.033,0.989-0.154,1.973-0.362,2.949c-0.208,0.977-0.515,1.898-0.92,2.764
				c-0.404,0.866-0.913,1.657-1.526,2.375c-0.612,0.717-1.329,1.313-2.149,1.787c-0.833,0.48-1.552,0.714-2.159,0.7
				c-0.607-0.013-1.114-0.218-1.518-0.616c-0.405-0.398-0.711-0.966-0.919-1.702c-0.208-0.737-0.329-1.581-0.363-2.53
				c-0.011-0.323-0.02-0.682-0.025-1.076c-0.006-0.395-0.008-0.805-0.008-1.228s0.002-0.837,0.008-1.238
				C188.772,329.977,188.781,329.609,188.791,329.274z M196.433,324.991c-0.046-1.22-0.307-2.034-0.785-2.442
				c-0.478-0.408-1.11-0.385-1.896,0.07c-0.788,0.454-1.42,1.161-1.898,2.121c-0.478,0.959-0.739,2.076-0.784,3.348
				c-0.023,0.672-0.033,1.409-0.033,2.214c0,0.805,0.011,1.53,0.033,2.175c0.045,1.221,0.307,2.03,0.784,2.43
				c0.479,0.399,1.11,0.372,1.898-0.082c0.786-0.455,1.419-1.158,1.896-2.108c0.479-0.952,0.739-2.064,0.785-3.336
				c0.021-0.67,0.034-1.409,0.034-2.214S196.454,325.637,196.433,324.991z"/>
			<path style="fill:#FAFAFA;" d="M205.557,312.815c0.833-0.48,1.555-0.729,2.168-0.744c0.613-0.016,1.125,0.169,1.535,0.555
				c0.41,0.387,0.726,0.957,0.944,1.714c0.22,0.757,0.352,1.667,0.396,2.731c0.045,1.256,0.045,2.537,0,3.844
				c-0.045,1.117-0.177,2.18-0.396,3.189c-0.219,1.01-0.531,1.942-0.936,2.801c-0.405,0.856-0.908,1.627-1.51,2.311
				c-0.602,0.685-1.308,1.262-2.117,1.729l-4.251,2.453c-0.123,0.072-0.23,0.065-0.32-0.022c-0.09-0.086-0.135-0.226-0.135-0.415
				v-16.777c0-0.19,0.045-0.38,0.135-0.57c0.09-0.189,0.197-0.322,0.32-0.393L205.557,312.815z M208.324,318.386
				c-0.023-0.54-0.093-1.016-0.21-1.423c-0.119-0.408-0.293-0.723-0.523-0.945c-0.23-0.222-0.521-0.332-0.869-0.33
				c-0.349,0.004-0.765,0.143-1.247,0.422l-2.261,1.305v11.688l2.344-1.354c0.461-0.267,0.86-0.597,1.198-0.99
				c0.337-0.393,0.618-0.829,0.844-1.305c0.225-0.477,0.395-0.99,0.515-1.545c0.117-0.552,0.188-1.111,0.21-1.679
				C208.369,320.922,208.369,319.641,208.324,318.386z"/>
			<path style="fill:#FAFAFA;" d="M220.671,319.022c0.124-0.071,0.23-0.064,0.321,0.023c0.089,0.086,0.134,0.225,0.134,0.415v1.844
				c0,0.19-0.045,0.382-0.134,0.571c-0.091,0.19-0.197,0.321-0.321,0.393l-7.405,4.275c-0.123,0.071-0.23,0.064-0.32-0.023
				c-0.09-0.086-0.135-0.225-0.135-0.415v-16.776c0-0.189,0.045-0.381,0.135-0.57c0.09-0.189,0.197-0.322,0.32-0.393l7.271-4.197
				c0.123-0.071,0.229-0.063,0.32,0.022c0.09,0.088,0.136,0.227,0.136,0.416v1.844c0,0.191-0.046,0.381-0.136,0.572
				c-0.091,0.19-0.197,0.32-0.32,0.392l-5.448,3.146v4.13l5.077-2.931c0.123-0.072,0.23-0.064,0.32,0.022
				c0.09,0.087,0.135,0.226,0.135,0.416v1.844c0,0.19-0.045,0.381-0.135,0.571c-0.09,0.19-0.197,0.321-0.32,0.393l-5.077,2.931v4.31
				L220.671,319.022z"/>
		</g>
	</g>
</g>
<g id="Link_1_">
	<g id="Link">
		<g id="Button_1_">
			<g id="XMLID_15689_">
				<path id="XMLID_15654_" style="fill:#37474F;" d="M191.36,472.622l-38.619-22.297c-1.433-0.827-2.594-2.839-2.594-4.494v-5.25
					c0-1.655,1.161-3.667,2.594-4.494l43.488-25.108c1.433-0.827,3.756-0.827,5.189,0l38.62,22.297
					c1.433,0.827,2.594,2.839,2.594,4.494v5.25c0,1.654-1.162,3.666-2.594,4.494l-43.488,25.108
					C195.116,473.449,192.793,473.449,191.36,472.622z"/>
				<path id="XMLID_15655_" style="fill:#455A64;" d="M196.229,410.98l-43.488,25.108c-1.433,0.827-1.433,2.168,0,2.996
					l38.62,22.297c1.433,0.827,3.756,0.827,5.189,0l43.487-25.108c1.433-0.827,1.433-2.168,0-2.996l-38.62-22.297
					C199.984,410.153,197.661,410.153,196.229,410.98z"/>
				<path style="fill:#263238;" d="M193.954,462.008v11.231c-0.94,0-1.88-0.205-2.596-0.614l-38.616-22.304
					c-1.433-0.819-2.596-2.838-2.596-4.485v-5.258c0-1.47,0.912-3.21,2.121-4.159c-0.94,0.819-0.782,1.935,0.475,2.661
					l38.616,22.304C192.074,461.803,193.014,462.008,193.954,462.008z"/>
				<path id="XMLID_1173_" style="fill:#FFFFFF;" d="M190.318,437.981c0.35-1.419,2.795-2.831,5.251-3.031l2.296-0.191
					c1.272-0.104,2.445-0.781,2.625-1.516c0.183-0.732-0.698-1.241-1.969-1.137l-2.294,0.189c-2.458,0.202-4.903,0.945-6.886,2.089
					c-1.983,1.145-3.27,2.557-3.62,3.973l-2.133,8.624c-0.725,2.926,2.809,4.966,7.876,4.547l2.296-0.19
					c2.458-0.202,4.901-0.943,6.886-2.09c1.983-1.145,3.265-2.557,3.617-3.973l1.01-4.076c0.182-0.733-0.698-1.242-1.968-1.136
					c-1.271,0.104-2.445,0.781-2.625,1.516l-1.012,4.075c-0.349,1.417-2.792,2.828-5.251,3.032l-2.297,0.189
					c-2.532,0.208-4.299-0.812-3.938-2.274L190.318,437.981L190.318,437.981z M207.057,434.001l2.131-8.623
					c0.352-1.417-0.274-2.671-1.761-3.529c-1.488-0.859-3.659-1.22-6.113-1.017l-2.3,0.188c-2.456,0.203-4.9,0.945-6.883,2.089
					c-1.983,1.145-3.269,2.557-3.619,3.974l-0.921,3.724c-0.18,0.734,0.7,1.242,1.966,1.137c1.273-0.103,2.448-0.782,2.628-1.516
					l0.921-3.724c0.176-0.709,0.818-1.415,1.809-1.987c0.992-0.573,2.213-0.944,3.442-1.045l2.299-0.189
					c1.227-0.102,2.312,0.079,3.057,0.509c0.744,0.429,1.057,1.056,0.88,1.764l-2.136,8.623c-0.347,1.418-2.793,2.83-5.247,3.031
					c-1.271,0.105-2.444,0.782-2.627,1.515c-0.18,0.735,0.698,1.242,1.967,1.138c2.457-0.203,4.901-0.943,6.884-2.088
					C205.419,436.829,206.703,435.418,207.057,434.001L207.057,434.001z M207.057,434.001"/>
			</g>
		</g>
		<g id="Speech_Bubble_20_">
			<g id="Speech_Bubble_21_">
				<path id="XMLID_1169_" style="fill:#E0E0E0;" d="M228.26,400.649l0-5.25c0-1.655,1.162-3.666,2.594-4.494l66.159-38.217
					c1.433-0.827,3.756-0.827,5.189,0l38.62,22.297c1.433,0.827,2.594,2.839,2.594,4.494l0,5.25c0,1.655-1.161,3.667-2.594,4.494
					l-66.159,38.217c-1.433,0.827-3.756,0.827-5.189,0l-38.62-22.298C229.422,404.316,228.26,402.304,228.26,400.649z"/>
				<path style="fill:#F0F0F0;" d="M343.415,379.483v5.248c0,1.656-1.163,3.666-2.596,4.494l-66.155,38.211
					c-0.716,0.419-1.656,0.624-2.596,0.624v-11.241c0.94,0,1.88-0.214,2.596-0.623l66.155-38.211
					c1.256-0.726,1.414-1.842,0.475-2.661C342.503,376.272,343.415,378.012,343.415,379.483z"/>
				<path style="fill:#F0F0F0;" d="M242.89,412.092l-0.027-0.016l-0.02,0.025l-10.021,1.943v11.269l0.008-0.001
					c0.022,0.775,0.748,1.469,1.636,1.235l22.999-6.04v-11.242L242.89,412.092z"/>
				<g>
					<path style="fill:#FAFAFA;" d="M272.069,416.353c-0.9,0-1.738-0.198-2.362-0.557l-12.175-7.03l-23.185,6.089
						c-0.077,0.02-0.154,0.031-0.23,0.031c-0.375,0-0.631-0.25-0.744-0.483c-0.068-0.141-0.195-0.508,0.099-0.882l10.088-12.821
						l-12.474-7.201c-0.535-0.309-0.842-0.708-0.842-1.095c0-0.387,0.307-0.786,0.842-1.096l66.158-38.217
						c0.623-0.359,1.462-0.557,2.362-0.557c0.9,0,1.739,0.198,2.363,0.558l38.62,22.297c0.535,0.309,0.842,0.708,0.842,1.095
						c0,0.387-0.307,0.786-0.842,1.096l-66.158,38.217C273.808,416.155,272.969,416.353,272.069,416.353z"/>
					<path style="fill:#E0E0E0;" d="M299.607,352.999c0.807,0,1.584,0.181,2.129,0.496l38.62,22.298
						c0.376,0.217,0.609,0.482,0.609,0.692c0,0.21-0.234,0.475-0.609,0.692l-66.159,38.217c-0.546,0.315-1.322,0.496-2.129,0.496
						c-0.807,0-1.583-0.181-2.129-0.496l-12.009-6.934l-0.331-0.191l-0.37,0.097l-22.999,6.04c-0.039,0.01-0.077,0.016-0.111,0.016
						c-0.161,0-0.274-0.114-0.326-0.221c-0.066-0.136-0.051-0.268,0.046-0.391l9.755-12.4l0.664-0.844l-0.93-0.537l-12.008-6.933
						c-0.376-0.217-0.61-0.482-0.61-0.692c0-0.21,0.234-0.475,0.61-0.692l66.159-38.217
						C298.024,353.179,298.8,352.999,299.607,352.999 M299.607,352.068c-0.939,0-1.878,0.207-2.594,0.62l-66.159,38.217
						c-1.433,0.827-1.433,2.168,0,2.996l12.008,6.933l-9.755,12.4c-0.699,0.888-0.018,2.117,1.011,2.117
						c0.112,0,0.229-0.015,0.348-0.046l22.999-6.04l12.009,6.934c0.716,0.414,1.655,0.62,2.595,0.62c0.939,0,1.878-0.207,2.594-0.62
						l66.159-38.217c1.433-0.827,1.433-2.169,0-2.996l-38.62-22.297C301.485,352.275,300.547,352.068,299.607,352.068
						L299.607,352.068z"/>
				</g>
			</g>
			<g>
				<path style="fill:#BA68C8;" d="M273.533,401.057c-0.342-0.005-0.706-0.12-1.094-0.344l-17.463-10.083
					c-0.592-0.341-0.352-0.821,0.72-1.44l1.109-0.64c1.071-0.619,1.903-0.758,2.495-0.416l14.941,8.626l4.13-2.384
					c0.295-0.171,0.619-0.23,0.97-0.176c0.351,0.054,0.768,0.219,1.248,0.496l0.86,0.496c0.481,0.277,0.766,0.518,0.859,0.72
					c0.093,0.202-0.009,0.39-0.305,0.561l-7.43,4.289C274.222,400.964,273.876,401.063,273.533,401.057z"/>
				<path style="fill:#BA68C8;" d="M268.032,385.014l-1.664-0.96c-0.592-0.342-0.268-0.87,0.971-1.585
					c1.293-0.746,2.235-0.949,2.827-0.608l1.664,0.96c0.591,0.342,0.267,0.87-0.97,1.585
					C269.565,385.153,268.623,385.355,268.032,385.014z M283.914,394.408l-12.835-7.41c-0.591-0.342-0.333-0.832,0.777-1.472
					l0.776-0.448c1.109-0.641,1.958-0.791,2.55-0.449l12.835,7.409c0.591,0.342,0.333,0.832-0.776,1.472l-0.776,0.449
					C285.356,394.6,284.506,394.75,283.914,394.408z"/>
				<path style="fill:#BA68C8;" d="M290.872,390.391l-8.843-5.105c-1.312-0.757-2.292-1.27-2.939-1.537
					c-0.647-0.266-1.034-0.437-1.164-0.512c-0.333-0.193-0.19-0.558,0.43-1.096c0.619-0.54,1.214-0.974,1.787-1.305
					c0.351-0.203,0.685-0.277,0.998-0.224c0.315,0.053,0.657,0.16,1.027,0.32c0.369,0.16,0.665,0.283,0.886,0.368
					c-0.204-0.587-0.194-1.173,0.027-1.761c0.223-0.586,0.721-1.104,1.497-1.552c1.016-0.586,2.116-0.842,3.299-0.768
					c1.183,0.075,2.404,0.474,3.659,1.199l10.035,5.794c0.591,0.342,0.351,0.822-0.721,1.44l-0.943,0.544
					c-1.072,0.619-1.903,0.758-2.494,0.416l-9.092-5.25c-0.48-0.277-0.909-0.44-1.289-0.488c-0.38-0.048-0.762,0.04-1.151,0.263
					c-0.499,0.289-0.664,0.726-0.498,1.313l9.619,5.553c0.295,0.171,0.388,0.374,0.277,0.609c-0.111,0.234-0.435,0.506-0.97,0.816
					l-0.97,0.56C292.286,390.599,291.464,390.733,290.872,390.391z"/>
				<path style="fill:#BA68C8;" d="M315.681,376.58c0.296,0.171-0.037,0.532-0.998,1.088l-1.552,0.896
					c-0.352,0.203-0.633,0.323-0.845,0.361c-0.213,0.037-0.466,0.024-0.763-0.041l-8.814-2.24l-0.305,0.176l5.988,3.457
					c0.591,0.342,0.351,0.822-0.721,1.44l-0.887,0.512c-1.072,0.619-1.904,0.758-2.495,0.416l-19.183-11.074
					c-0.591-0.342-0.351-0.821,0.722-1.44l0.887-0.513c1.071-0.619,1.904-0.757,2.494-0.416l11.532,6.658l0.138-0.08l-3.188-4.561
					c-0.129-0.203-0.162-0.355-0.098-0.457c0.066-0.101,0.283-0.258,0.652-0.472l1.441-0.832c0.998-0.576,1.654-0.773,1.968-0.592
					c0.111,0.065,0.24,0.215,0.388,0.449l3.299,4.913l9.618,2.128C315.311,376.43,315.552,376.506,315.681,376.58z"/>
			</g>
		</g>
	</g>
</g>
<g id="Icon_1_">
	<path id="Icon" style="fill:#E0E0E0;" d="M52.328,111.74c1.573-2.419,3.481-3.753,5.182-3.879l8.589-29.736
		c-0.517-0.301-0.984-0.754-1.371-1.381c-1.905-3.085-1.219-9.014,1.533-13.244c2.752-4.23,6.527-5.159,8.432-2.074
		c1.905,3.085,1.219,9.014-1.533,13.244c-1.573,2.419-3.48,3.752-5.182,3.879l-8.589,29.736c0.517,0.301,0.984,0.754,1.371,1.381
		c0.387,0.627,0.661,1.375,0.839,2.198l19.066-12.772c0.124-2.68,1.019-5.653,2.593-8.072c2.752-4.23,6.527-5.159,8.432-2.074
		c1.905,3.085,1.219,9.014-1.533,13.244c-2.752,4.23-6.527,5.158-8.432,2.074c-0.387-0.627-0.662-1.375-0.839-2.198L61.82,114.838
		c-0.125,2.68-1.019,5.653-2.593,8.072c-2.752,4.23-6.527,5.159-8.432,2.074C48.89,121.899,49.576,115.969,52.328,111.74z"/>
</g>
<g id="Plants">
	<g id="Plants_10_">
		<g id="XMLID_1162_">
			<g id="XMLID_1167_">
				<path id="XMLID_1168_" style="fill:#BA68C8;" d="M62.165,467.025l8.681-5.017c0,0,5.167-21.469,3.108-40.788
					c-2.895-27.161-20.773-37.381-27.572-35.038c-6.798,2.342-8.767,10.246,2.482,26.422
					C55.501,422.149,63.654,442.029,62.165,467.025z"/>
			</g>
			<g id="XMLID_1165_" style="opacity:0.65;">
				<path id="XMLID_1166_" style="fill:#FFFFFF;" d="M62.165,467.025l8.681-5.017c0,0,5.167-21.469,3.108-40.788
					c-2.895-27.161-20.773-37.381-27.572-35.038c-6.798,2.342-8.767,10.246,2.482,26.422
					C55.501,422.149,63.654,442.029,62.165,467.025z"/>
			</g>
			<g id="XMLID_1163_">
				<path id="XMLID_1164_" style="fill:#FFFFFF;" d="M65.763,456.478c-0.028-0.001-0.055-0.005-0.083-0.01
					c-0.327-0.062-0.542-0.377-0.479-0.703c4.759-25.052-3.993-53.202-14.83-64.916c-0.225-0.243-0.211-0.625,0.034-0.851
					c0.244-0.223,0.625-0.211,0.851,0.034c11.034,11.927,19.957,40.538,15.128,65.958C66.327,456.287,66.058,456.492,65.763,456.478
					z"/>
			</g>
		</g>
		<g id="XMLID_928_">
			<g id="XMLID_1160_">
				<path id="XMLID_1161_" style="fill:#BA68C8;" d="M40.317,479.639c-1.297,0.66-4.746-2.292-5.707-3.01
					c-1.646-1.229-2.944-2.917-3.769-4.794c-0.959-2.184-1.113-4.481-0.66-6.82c0.235-1.214,0.637-2.387,1.038-3.557
					c0.394-1.148,0.787-2.296,1.181-3.444c0.388-1.133,0.782-2.305,0.69-3.499c-0.185-2.405-2.222-4.186-4.078-5.728
					c-2.052-1.704-4.167-3.924-4.009-6.801c0.121-2.219,1.375-4.223,2.838-5.896c1.464-1.673,3.174-3.13,4.51-4.906
					c0.962-1.279,1.738-2.799,1.673-4.397c-0.041-0.993-0.404-1.946-0.833-2.842c-0.922-1.924-2.175-3.708-2.774-5.756
					c-0.599-2.048-0.373-4.546,1.27-5.907c1.349-1.117,3.273-1.185,5.012-0.982c1.609,0.188,3.15,0.996,4.523,1.853
					c4.439,2.77,6.773,8.311,11.522,10.51c1.831,0.848,3.872,1.117,5.794,1.73c1.923,0.613,3.86,1.709,4.671,3.557
					c1.6,3.643-1.923,7.856-0.862,11.692c0.938,3.394,4.118,4.835,5.788,7.936c0.73,1.356,0.837,2.886,0.632,4.413
					c-0.349,2.584-0.824,4.469-2.215,7.292c-1.149,2.333-4.386,6.742-4.386,6.742S40.515,479.538,40.317,479.639z"/>
			</g>
			<g id="XMLID_1120_" style="opacity:0.3;">
				<path id="XMLID_1156_" style="fill:#FFFFFF;" d="M40.317,479.639c-1.297,0.66-4.746-2.292-5.707-3.01
					c-1.646-1.229-2.944-2.917-3.769-4.794c-0.959-2.184-1.113-4.481-0.66-6.82c0.235-1.214,0.637-2.387,1.038-3.557
					c0.394-1.148,0.787-2.296,1.181-3.444c0.388-1.133,0.782-2.305,0.69-3.499c-0.185-2.405-2.222-4.186-4.078-5.728
					c-2.052-1.704-4.167-3.924-4.009-6.801c0.121-2.219,1.375-4.223,2.838-5.896c1.464-1.673,3.174-3.13,4.51-4.906
					c0.962-1.279,1.738-2.799,1.673-4.397c-0.041-0.993-0.404-1.946-0.833-2.842c-0.922-1.924-2.175-3.708-2.774-5.756
					c-0.599-2.048-0.373-4.546,1.27-5.907c1.349-1.117,3.273-1.185,5.012-0.982c1.609,0.188,3.15,0.996,4.523,1.853
					c4.439,2.77,6.773,8.311,11.522,10.51c1.831,0.848,3.872,1.117,5.794,1.73c1.923,0.613,3.86,1.709,4.671,3.557
					c1.6,3.643-1.923,7.856-0.862,11.692c0.938,3.394,4.118,4.835,5.788,7.936c0.73,1.356,0.837,2.886,0.632,4.413
					c-0.349,2.584-0.824,4.469-2.215,7.292c-1.149,2.333-4.386,6.742-4.386,6.742S40.515,479.538,40.317,479.639z"/>
			</g>
			<g id="XMLID_935_">
				<path id="XMLID_1118_" style="fill:#FFFFFF;" d="M52.883,473.09c-0.008-0.001-0.016-0.001-0.016-0.001
					c-0.321-0.03-0.551-0.307-0.523-0.62c2.079-22.533-7.303-47.997-14.674-55.63c-0.218-0.226-0.212-0.586,0.014-0.806
					c0.227-0.218,0.586-0.211,0.806,0.014c7.519,7.786,17.097,33.676,14.99,56.525C53.45,472.879,53.186,473.105,52.883,473.09z"/>
			</g>
			<g id="XMLID_930_">
				<path id="XMLID_934_" style="fill:#FFFFFF;" d="M50.645,445.307c-0.055-0.003-0.112-0.013-0.167-0.034
					c-7.141-2.608-16.163-3.46-16.253-3.468c-0.314-0.029-0.544-0.307-0.516-0.62c0.029-0.313,0.279-0.548,0.62-0.516
					c0.092,0.009,9.257,0.873,16.539,3.534c0.295,0.107,0.448,0.435,0.34,0.73C51.12,445.174,50.888,445.319,50.645,445.307z"/>
			</g>
		</g>
	</g>
</g>
<g id="Character">
	<g id="Character_12_">
		<g id="Bottom_14_">
			<g>
				<path style="fill:#FFBDA7;" d="M361.438,419.546c0.095,4.942,0.481,12.13,0,14.18c-0.481,2.05-8.716,4.046-15.155,4.348
					c-6.44,0.302-14.189-0.7-14.655,3.819c-0.471,4.57,3.566,7.595,6.527,8.965c5.024,2.324,10.626,1.818,15.552,1.095
					c4.926-0.723,7.555-0.197,12.758,1.074c5.203,1.27,8.14,0.489,10.367-0.625c3.296-1.648,2.423-7.285,1.254-10.951
					c-1.169-3.666-1.034-7.021-0.597-12.109c0.437-5.088,1.882-12.515,1.882-12.515L361.438,419.546z"/>
				<path style="fill:#455A64;" d="M378.086,441.452c0,0,0.008,1.556-3.373,2.267c-3.381,0.711-8.977,0.526-12.902,0.778
					c-5.884,0.379-10.348,1.054-17.096,0c-5.916-0.924-5.668-5.618-0.368-6.365l0-0.001c-5.962,0.1-12.299-0.31-12.719,3.763
					c-0.471,4.57,3.566,7.595,6.527,8.965c5.024,2.324,10.626,1.818,15.552,1.095c4.926-0.723,7.555-0.197,12.758,1.074
					c5.203,1.27,8.14,0.489,10.366-0.624C380.128,450.754,379.255,445.117,378.086,441.452z"/>
			</g>
			<g>
				<path style="fill:#FFBDA7;" d="M422.614,407.286c2.758,4.015,7.322,11.588,7.951,13.475c0.63,1.888,1.206,8.94,0,11.028
					c-1.725,1.264-4.437,1.985-6.753,3.131c-3.34,1.652-4.059,4.389-1.875,6.484c3.047,2.923,7.963,3.268,10.935,3.093
					c4.316-0.659,4.614-5.497,5.237-9.781c0.623-4.283-0.081-12.711,3.167-17.887c3.248-5.176,9.005-5.663,9.756-3.938
					c-0.354-2.603-1.789-2.681-4.904-4.442c-3.115-1.76-5.826-1.706-7.55-5.794c-2.04-4.838-3.895-10.612-3.895-10.612
					L422.614,407.286z"/>
				<path style="fill:#263238;" d="M428.685,444.576c3.105,0.52,5.281,0.518,10.79-2.184c4.754-2.332,5.96-3.316,6.687-4.611
					c1.147-2.045-0.094-7.094,0.906-11.447c1-4.353,2.059-6.246,3.138-8.89c1.079-2.644,0.997-3.786,0.825-4.554
					c-0.369-1.654-3.734-1.858-6.93,0c-3.196,1.858-5.268,5.395-6.325,13.827C436.719,435.149,438.348,444.373,428.685,444.576z"/>
				<path style="fill:#455A64;" d="M451.031,412.89c-0.354-2.603-1.254-2.99-4.368-4.751c-1.158-0.654-2.295-1.123-3.356-1.664v0
					c-3.014-0.568-7.762,1.809-8.006,8.135c-0.244,6.326,0.844,14.351-1.061,17.326c-1.622,2.534-4.289,2.362-3.675-0.146
					c-4.273,1.567-5.741,1.588-8.155,2.909c-2.784,1.524-3.72,5.505-1.147,7.097c3.591,2.221,7.292,3.36,11.608,2.701
					c4.316-0.659,4.614-5.497,5.237-9.781c0.623-4.283-0.081-12.711,3.167-17.887C444.523,411.652,450.281,411.166,451.031,412.89z"
					/>
			</g>
			<g>
				<path id="XMLID_1152_" style="fill:#455A64;" d="M423.431,409.801c0,0-15.694-23.052-24.08-37.986
					c-6.199-11.04-6.763-13.18-8.282-20.404c-3.264-15.523-4.03-19.161-4.03-19.161l-4.87,31.347
					c0.777,3.404,2.352,10.142,2.414,14.106c0.076,5.266-0.402,12.677-1.887,23.108c-2.361,16.589-4.77,25.61-4.77,25.61
					c-1.219,0.85-4.759,1.01-7.833,0.913c-4.261-0.135-8.805-1.645-8.805-1.645s-2.558-36.942-3.155-47.104
					c-0.717-12.198-0.967-16.985-1.348-23.685c-0.607-10.663-2.058-26.106-1.643-45.699c0.824-38.98,9.505-56.771,9.505-56.771
					l43.999-6.111c3.653,13.13,11.242,14.657,12.038,32.584c0.181,4.071-1.97,12.146-2.042,18.46
					c-0.234,20.48-2.065,52.652-2.065,52.652c4.831,4.453,8.369,8.479,11.708,18.81c2.027,6.271,6.521,22.159,8.414,28.602
					C431.154,397.427,423.364,407.286,423.431,409.801z"/>
				<g>
					<path style="fill:#37474F;" d="M378.949,274.899l1.165-0.178c1.026,7.06,2.709,15.073,3.639,15.71
						c1.612,1.096,7.601,1.997,8.944,1.661c1.385-0.34,2.535-1.433,4.923-4.678c1.676-2.279,1.497-3.699,1.104-6.809
						c-0.147-1.166-0.315-2.488-0.422-4.146l1.176-0.08c0.104,1.621,0.269,2.922,0.414,4.071c0.395,3.129,0.635,5.017-1.331,7.689
						c-2.583,3.509-3.889,4.707-5.59,5.125c-0.197,0.048-0.452,0.078-0.751,0.092c-2.372,0.108-7.52-0.833-9.12-1.923
						C381.299,290.209,379.467,278.468,378.949,274.899z"/>
					<path style="fill:#37474F;" d="M360.936,273.858l1.134,0.33c-3.331,11.97-2.602,22.93,3.359,26.261
						c1.088-8.081,2.619-16.432,4.725-25.373l1.146,0.283c-6.781,28.784-7.602,51.455-6.726,78.705
						c0.667,20.754,1.979,56.439,2.594,72.993c-0.405-0.06-0.802-0.126-1.187-0.197c-0.619-16.661-1.922-52.103-2.585-72.756
						c-0.592-18.448-0.401-34.812,1.87-52.38C358.435,298.25,357.364,286.697,360.936,273.858z"/>
					<path style="fill:#37474F;" d="M420.177,284.603c-0.639,0.631-2.057,1.484-2.584,1.518l-0.036,0.002
						c-1.858,0.085-4.931-2.562-5.803-4.554c-0.425-0.968-0.564-2.137-0.742-3.617c-0.184-1.54-0.394-3.284-0.984-5.355l1.131-0.336
						c0.617,2.163,0.843,4.038,1.023,5.545c0.166,1.38,0.296,2.47,0.648,3.273c0.739,1.686,3.432,3.898,4.67,3.842l0.018-0.001
						c0.319-0.021,2.051-1.252,2.938-2.326C420.379,283.185,420.265,283.998,420.177,284.603z"/>
					<path style="fill:#37474F;" d="M427.125,403.596c0.272-0.311,0.549-0.622,0.84-0.929c-7.512-13.098-23.645-41.753-25.086-48.71
						c-1.844-8.905-5.02-38.76-5.146-54.82l-1.18,0.009c0.127,16.124,3.319,46.113,5.173,55.062
						C403.233,361.486,419.658,390.603,427.125,403.596z"/>
					<path style="fill:#37474F;" d="M404.107,270.217c2.984,4.748,4.8,13.078,0.947,22.217l-1.083-0.476
						c3.671-8.704,1.964-16.601-0.856-21.087L404.107,270.217z"/>
				</g>
				<path style="fill:#37474F;" d="M387.039,332.25l4.78-32.867c0,0,12.374-1.731,14.081-13.334
					c0.299,6.883-2.448,12.806-10.135,15.985l-6.14,30.337l1.443,19.039L387.039,332.25z"/>
			</g>
		</g>
		<g id="Top_10_">
			<g id="Mobile_2_">
				<g>
					<path style="fill:#37474F;" d="M305.934,183.343l0-33.912c0-0.669-0.029-1.21-0.738-1.637c-0.708-0.426-1.207-0.155-1.786,0.18
						l-14.825,8.559c-0.579,0.334-1.048,1.147-1.048,1.816v33.912c0,0.669,0.33,1.401,0.738,1.637
						c0.407,0.235,1.207,0.155,1.786-0.179l14.825-8.559C305.465,184.824,305.934,184.274,305.934,183.343z"/>
					<path style="fill:#263238;" d="M304.991,183.683l-15.244,8.801l0.005-34.067l-1.907-1.101c-0.19,0.329-0.307,0.699-0.307,1.033
						v33.912c0,0.669,0.078,1.246,0.738,1.637c0.659,0.391,1.207,0.155,1.786-0.179l14.825-8.559
						c0.362-0.209,0.719-0.523,0.908-1.013l-0.059-0.034L304.991,183.683z"/>
				</g>
				<path style="fill:#455A64;" d="M304.858,149.121l-14.867,8.584c-0.405,0.234-0.736,0.807-0.736,1.274v33.62
					c0,0.718,0.51,1.011,1.132,0.652l14.472-8.355c0.458-0.265,0.834-0.914,0.834-1.444v-33.849
					C305.692,149.072,305.317,148.856,304.858,149.121z"/>
				<g>
					<path style="fill:#263238;" d="M304.967,151.304v31.298c0,0.505-0.356,1.122-0.792,1.373l-13.403,7.738
						c-0.437,0.254-0.792,0.05-0.792-0.456v-31.542c0-0.409,0.233-0.892,0.556-1.194c0.025-0.023,0.05-0.046,0.075-0.068
						c0.052-0.041,0.107-0.079,0.161-0.11l3.77-2.177c0,0,0.11-0.064,0.246-0.142c0.136-0.079,0.246-0.016,0.246,0.142
						c0,0.156,0.117,0.217,0.263,0.132l4.393-2.536c0.144-0.083,0.263-0.278,0.263-0.435c0-0.146,0.097-0.324,0.22-0.412
						c0.008-0.006,0.017-0.011,0.025-0.016l3.688-2.128l0.079-0.046C304.516,150.407,304.967,150.667,304.967,151.304z"/>
					<path style="fill:#FFFFFF;" d="M303.886,150.771v31.087c0,0.505-0.357,1.122-0.792,1.373l-13.114,7.571v-31.088
						c0-0.409,0.233-0.892,0.556-1.194c0.025-0.023,0.05-0.046,0.075-0.068c0.052-0.041,0.107-0.079,0.161-0.11l3.77-2.177
						c0,0,0.11-0.064,0.246-0.142c0.136-0.079,0.246-0.016,0.246,0.142c0,0.156,0.117,0.217,0.263,0.132l4.393-2.536
						c0.144-0.083,0.263-0.278,0.263-0.435c0-0.146,0.097-0.324,0.22-0.412c0.008-0.006,0.017-0.011,0.025-0.016L303.886,150.771z"
						/>
					<g>
						<path style="fill:#263238;" d="M295.963,154.958l2.014-1.163c0.12-0.069,0.218-0.02,0.218,0.11
							c0,0.13-0.097,0.292-0.218,0.361l-2.014,1.163c-0.12,0.069-0.217,0.02-0.217-0.11
							C295.746,155.189,295.843,155.028,295.963,154.958z"/>
						<g>
							<path style="fill:#263238;" d="M299.011,153.103c0.135-0.078,0.245-0.015,0.245,0.141s-0.11,0.346-0.245,0.424
								c-0.135,0.078-0.245,0.015-0.245-0.141S298.875,153.181,299.011,153.103z"/>
						</g>
					</g>
				</g>
				<g>
					<g>
						<path style="fill:#455A64;" d="M288.913,162.656c0-0.263-0.173-0.577-0.387-0.701c-0.103-0.06-0.197-0.064-0.266-0.022
							c-0.049,0.029-0.24,0.136-0.291,0.166c-0.074,0.044-0.12,0.14-0.12,0.275l0,2.925c0,0.263,0.173,0.577,0.387,0.701
							c0.099,0.057,0.188,0.063,0.256,0.027c0.053-0.028,0.249-0.141,0.3-0.171c0.074-0.044,0.12-0.14,0.12-0.275L288.913,162.656z"
							/>
						<path style="fill:#37474F;" d="M288.625,162.822v2.925c0,0.263-0.173,0.377-0.388,0.253c-0.214-0.124-0.388-0.437-0.388-0.701
							v-2.925c0-0.263,0.174-0.377,0.388-0.253S288.625,162.559,288.625,162.822z"/>
					</g>
					<g>
						<path style="fill:#455A64;" d="M288.913,167.776c0-0.263-0.173-0.577-0.387-0.701c-0.103-0.06-0.197-0.063-0.266-0.022
							c-0.049,0.029-0.24,0.136-0.291,0.166c-0.074,0.044-0.12,0.14-0.12,0.275l0,2.925c0,0.263,0.173,0.577,0.387,0.701
							c0.099,0.057,0.188,0.063,0.256,0.027c0.053-0.028,0.249-0.141,0.3-0.171c0.074-0.044,0.12-0.14,0.12-0.275L288.913,167.776z"
							/>
						<path style="fill:#37474F;" d="M288.625,167.942v2.925c0,0.263-0.173,0.377-0.388,0.253c-0.214-0.124-0.388-0.437-0.388-0.701
							v-2.925c0-0.263,0.174-0.377,0.388-0.253C288.451,167.365,288.625,167.678,288.625,167.942z"/>
					</g>
				</g>
			</g>
			<g>
				<path id="XMLID_1143_" style="fill:#FFBDA7;" d="M412.366,193.221c8.01,1.9,12.345,4.12,15.642,15.006
					c3.121,10.303,8.345,27.696,9.715,35.07c0.668,3.597,0.97,7.02-4.024,9.133c-11.295,4.779-22.186,8.127-22.186,8.127
					l-4.411-13.333l12.077-6.033l-3.013-9.716L412.366,193.221z"/>
				<path style="fill:#F0997A;" d="M419.179,241.19c0.861,1.886,2.575,4.262,4.975,5.44c-2.941,0.355-5.814-2.72-6.56-4.648
					L419.179,241.19z"/>
			</g>
			<g id="XMLID_1116_">
				<path id="XMLID_1142_" style="fill:#263238;" d="M373.479,153.37c-1.396-1.869-1.2-4.665-0.197-6.771
					c1.003-2.107,2.937-4.273,8.302-6.584c6.372-2.743,23.766-4.567,30.437,7.079c0.995,1.738-17.19,32.512-16.83,39.054
					c-3.988-4.84-17.092-21.796-17.092-21.796c-3.271-1.675-5.223-3.038-5.709-6.27C372.253,157.161,372.461,154.846,373.479,153.37
					z"/>
				<g id="XMLID_1139_">
					<path id="XMLID_1141_" style="fill:#F0997A;" d="M375.384,162.391c0,0-5.081,7.119-4.621,7.761
						c0.46,0.643,3.215,2.471,3.215,2.471L375.384,162.391z"/>
					<path id="XMLID_1140_" style="fill:#FFBDA7;" d="M382.007,149.229c-3.157,1.226-5.973,3.382-7.4,10.021
						c-0.373,1.735,0.825,4.229,0.038,6.516c-3.369,9.793-0.804,18.341,1.008,20.316c1.224,1.332,8.04,2.37,11.708,1.624
						c4.59-0.935,14.68-4.655,19.843-11.358c6.073-7.888,8.147-18.925,2.355-23.827C401.411,145.622,385.377,147.92,382.007,149.229
						z"/>
					<path style="fill:#FFBDA7;" d="M403.863,181.781l0.573,9.948l0,0c5.523,3.227-5.905,7.441-18.02,2.255l-0.875-8.972
						L403.863,181.781z"/>
					<path style="fill:#FFBDA7;" d="M385.939,189.101c0.224,2.302,0.447,5.742-3.117,6.691c-3.354,0.893-8.776,1.452-14.06,3.426
						c0,0,19.044,3.005,29.03,1.358c9.986-1.648,11.725-8.075,11.725-8.075c-3.597-0.482-5.1-1.079-5.234-3.399H385.939z"/>
					<path style="fill:#F0997A;" d="M375.999,186.359c1.532,0.998,5.002,1.902,9.826,1.575l-0.215-2.49c0,0-1.974,0.687-4.65,1.035
						C378.301,186.825,376.027,186.365,375.999,186.359z"/>
				</g>
				<g>
					<path id="XMLID_1138_" style="fill:#263238;" d="M377.232,152.487c-0.477,4.336,2.153,5.899,4.034,6.893
						c-0.785,1.208-1.338,3.66-1.163,5.068c0.279,2.235,0.988,4.099,3.105,4.982c1.296,0.541,1.728-0.017,2.276-1.029
						c0.779-1.44,1.786-3.664,4.95-2.997c3.629,0.764,4.203,6.35,1.81,9.812c-1.054,1.526-2.691,2.509-4.327,2.486
						c-1.466-0.02-2.411-1.354-2.411-1.354s-0.1,4.836,5.889,8.127c0,0,5.999,3.961,12.542,2.525
						c2.598-2.683,5.639-5.44,8.864-9.456c7.453-9.283,9.013-26.92-2.275-30.944c-0.538-0.192-9.805-2.535-14.968-1.794
						C379.719,147.079,377.315,151.736,377.232,152.487z"/>
				</g>
				<path style="fill:#263238;" d="M412.022,147.094c1.781,0,7.159,2.743,7.145,14.702c-0.009,8.074-1.956,18.885-4.576,23.945
					c-6.921,7.63-26.957,9.085-35.821,5.892c5.736-2.632,6.771-9.765,6.737-15.285c2.624,3.97,7.419,4.908,13.219,1.999
					C404.525,175.436,412.022,147.094,412.022,147.094z"/>
			</g>
			<g id="XMLID_1097_">
				<path id="XMLID_1113_" style="fill:#BA68C8;" d="M420.13,203.115c-1.657-8.071-6.036-9.826-7.986-10.174
					c-3.112-0.555-5.042-0.876-5.042-0.876c0.055,0.955,0.691,3.239-8.242,4.357c-5.747,0.719-15.653-0.753-15.653-0.753
					l-8.843,1.202c-3.277,1.966-11.293,9.74-15.076,18.672c-2.99,7.059-1.87,14.247,3.465,19.497
					c0.407,4.434-0.318,13.215-0.318,13.215c-3.064,16.012-4.773,22.747-4.773,22.747s4.19,6.547,31.313,5.941
					c21.007-0.469,30.702-9.86,30.702-9.86c-0.604-3.139-2.801-9.86-6.771-20.315C413.44,236.55,423.717,220.583,420.13,203.115z"/>
			</g>
			<g>
				<path id="XMLID_1093_" style="fill:#FFBDA7;" d="M329.276,208.121c0,0-20.235-12.455-21.494-14.139
					c-1.071-1.433-1.006-3.211-1.238-4.889c-0.266-1.926-0.926-3.788-1.727-5.551c-0.527-1.161-1.259-2.248-1.72-3.432
					c-0.427-1.097-0.373-2.294-0.772-3.394c-0.433-1.192-1.523-0.75-2.223-0.027c-0.93,0.96-1.21,2.63-1.12,3.909
					c0.043,0.61,0.055,1.224,0.102,1.834c0.043,0.556,0.186,1.143,0.115,1.703c-0.034,0.27-0.107,0.617-0.315,0.802
					c-0.469,0.416-1.324-0.229-1.7-0.533c-2.469-2.002-4.625-4.67-6.081-7.491c-0.639-1.238-1.042-2.53-1.769-3.728
					c-0.641-1.056-1.487-2.199-2.437-3.002c-0.494-0.417-1.579-1.225-2.281-1.188c-1.378,0.072-0.614,2.463-0.503,3.225
					c0.138,0.947,0.165,1.643-0.17,2.559c-0.437,1.196-0.369,1.779-0.012,2.997c0.301,1.026,0.89,2.191,0.695,3.259
					c-0.067,0.368-0.231,0.745-0.344,1.102c-0.322,1.014-0.039,2.505,0.361,3.455c0.515,1.221,0.512,1.923,0.253,3.213
					c-0.5,2.486,1.466,5.048,2.983,6.791c1.744,2.005,3.824,3.693,5.982,5.231c1.163,0.829,2.259,1.749,3.442,2.548
					c1.058,0.716,2.191,1.318,3.194,2.109c2.387,1.882,11.461,10.705,22.024,19.243c3.487,2.819,4.564,3.803,11.318,2.586
					c12.165-2.192,14.905-2.805,22.174-4.152c11.088-2.056,12.453-2.403,12.453-2.403c6.918-2.981,7.88-11.286,8.06-15.428
					c0.226-5.195-2.161-8.46-2.161-8.46c-6.336,0.291-11.796,1.766-21.921,4.734C340.52,205.099,329.276,208.121,329.276,208.121z"
					/>
			</g>
		</g>
	</g>
</g>
<g id="Speech_Bubble">
	<g id="Speech_Bubble_6_">
		<g id="Speech_Bubble_8_">
			<path id="XMLID_927_" style="fill:#BA68C8;" d="M392.1,130.727l-3.841-7.222l3.09-8.92v-5.46l-9.457,5.46v5.46l4.066,7.042
				c0.069,0.119,0.167,0.197,0.276,0.245l-0.002,0.003L392.1,130.727z"/>
			<path id="XMLID_921_" style="opacity:0.2;" d="M392.1,130.727l-3.841-7.222l3.09-8.92v-5.46l-9.457,5.46v5.46l4.066,7.042
				c0.069,0.119,0.167,0.197,0.276,0.245l-0.002,0.003L392.1,130.727z"/>
			<path id="XMLID_909_" style="fill:#BA68C8;" d="M412.408,61.397c0-1.808-1.269-4.006-2.835-4.911l-2.309-1.333
				c-1.565-0.904-4.104-0.904-5.671,0l-32.615,18.909c-1.566,0.904-2.836,3.103-2.836,4.911v44.577c0,1.809,1.27,4.007,2.836,4.911
				l2.309,1.333c1.566,0.904,4.105,0.904,5.671,0l10.873-6.309l4.057,7.028c0.259,0.449,0.927,0.386,1.097-0.105l4.288-12.379
				l12.3-7.145c1.566-0.904,2.835-3.102,2.835-4.91L412.408,61.397z"/>
			<path id="XMLID_907_" style="opacity:0.2;" d="M366.143,123.551c0,1.808,1.27,4.007,2.835,4.911l2.309,1.333
				c1.415,0.817,3.618,0.888,5.186,0.228c-1.334,0.505-2.351-0.248-2.351-1.866l0-44.578c0-0.904,0.318-1.906,0.83-2.794
				l-7.979-4.607c-0.513,0.888-0.83,1.89-0.83,2.794V123.551z"/>
			<path id="XMLID_289_" style="opacity:0.3;fill:#FFFFFF;" d="M412.315,60.591c-0.331-1.204-1.428-1.587-2.738-0.833
				l-32.621,18.914c-0.78,0.45-1.494,1.217-1.997,2.116l-7.976-4.603c0.516-0.9,1.217-1.667,1.997-2.116l32.608-18.914
				c1.574-0.899,4.113-0.899,5.675,0l2.315,1.336C410.913,57.258,412.037,58.978,412.315,60.591z"/>
		</g>
		<g id="Icon_2_">
			<path id="Online_icon_1_" style="fill:#FFFFFF;" d="M401.837,75.189c-2.601-1.503-5.909-1.253-9.311,0.711
				c-7.568,4.369-13.725,16.113-13.725,26.179c0,5.399,1.788,9.527,4.905,11.327c1.122,0.648,2.373,0.97,3.707,0.97
				c1.764,0,3.67-0.564,5.605-1.681c7.568-4.369,13.725-16.114,13.725-26.18C406.744,81.117,404.956,76.989,401.837,75.189z
				 M379.819,101.208c0.175-4.984,1.832-10.302,4.39-14.841c0.61,0.291,1.252,0.493,1.924,0.605
				c-1.498,3.981-2.356,8.135-2.397,11.975L379.819,101.208z M393.265,94.582l7.536-4.351c-0.119,3.645-0.974,7.551-2.411,11.294
				c-1.612-0.052-3.348,0.381-5.125,1.28V94.582z M393.265,93.445v-8.193c1.884-1.132,3.722-2.75,5.412-4.74
				c1.336,2.122,2.1,5.063,2.139,8.573L393.265,93.445z M393.265,84.085V76.87c1.933,0.24,3.578,1.218,4.831,2.812
				C396.583,81.497,394.944,82.989,393.265,84.085z M392.28,84.683c-1.649,0.91-3.255,1.375-4.74,1.4
				c1.242-2.995,2.85-5.853,4.74-8.349V84.683z M387.148,87.073c0.089,0.003,0.176,0.016,0.266,0.016
				c1.538,0,3.187-0.454,4.866-1.305v8.229l-7.543,4.355C384.855,94.724,385.711,90.816,387.148,87.073z M392.28,95.151v8.193
				c-1.886,1.133-3.728,2.753-5.419,4.746c-1.336-2.122-2.101-5.064-2.14-8.575L392.28,95.151z M392.28,104.511v7.219
				c-1.936-0.238-3.582-1.217-4.837-2.811C388.957,107.101,390.599,105.609,392.28,104.511z M393.265,103.912
				c1.648-0.909,3.251-1.374,4.734-1.399c-1.24,2.992-2.846,5.848-4.734,8.343V103.912z M401.802,89.654l3.925-2.266
				c-0.175,4.986-1.834,10.307-4.393,14.847c-0.612-0.292-1.255-0.496-1.928-0.607C400.903,97.647,401.76,93.493,401.802,89.654z
				 M405.747,86.238l-3.962,2.287c-0.118-3.608-0.982-6.634-2.449-8.823c0.833-1.053,1.621-2.195,2.354-3.414
				C404.223,77.984,405.69,81.559,405.747,86.238z M400.841,75.795c-0.662,1.098-1.368,2.13-2.111,3.088
				c-1.174-1.426-2.655-2.384-4.369-2.81c1.309-0.575,2.58-0.865,3.769-0.865C399.097,75.207,400.005,75.41,400.841,75.795z
				 M390.473,78.559c-1.564,2.295-2.9,4.833-3.966,7.465c-0.634-0.084-1.237-0.257-1.806-0.52
				C386.347,82.771,388.316,80.369,390.473,78.559z M379.798,102.357l3.954-2.283c0.118,3.61,0.983,6.637,2.451,8.826
				c-0.831,1.052-1.618,2.19-2.35,3.406C381.322,110.611,379.855,107.036,379.798,102.357z M384.708,112.795
				c0.659-1.094,1.363-2.12,2.103-3.075c1.171,1.42,2.645,2.376,4.352,2.804C388.798,113.556,386.564,113.649,384.708,112.795z
				 M395.062,110.045c1.566-2.297,2.904-4.838,3.97-7.473c0.635,0.084,1.241,0.257,1.811,0.52
				C399.196,105.829,397.223,108.234,395.062,110.045z"/>
		</g>
	</g>
</g>
</svg>
