<?xml version="1.0" encoding="UTF-8"?>
<svg id="Layer_1" data-name="Layer 1" xmlns="http://www.w3.org/2000/svg" viewBox="0 0 194 90">
  <defs>
    <style>
      .cls-1 {
        fill: none;
        stroke: #000;
      }
    </style>
  </defs>
  <path d="m22.14,10.9c4.76,0,8.39,1.14,10.88,3.42,2.48,2.27,3.73,5.93,3.73,10.98v20.81c0,5.02-1.24,8.67-3.71,10.96-2.46,2.29-6.09,3.44-10.9,3.44s-8.43-1.11-10.9-3.35c-2.47-2.25-3.71-5.93-3.71-11.04v-20.81c0-5.01,1.23-8.67,3.71-10.96,2.47-2.29,6.1-3.44,10.9-3.44Zm-2.33,10.94v27.73c0,.93.2,1.66.6,2.17.4.52.98.77,1.73.77s1.34-.26,1.73-.77c.4-.51.6-1.23.6-2.17v-27.73c0-.93-.2-1.65-.6-2.17-.39-.51-.97-.77-1.73-.77-1.56,0-2.33.98-2.33,2.94Z"/>
  <path d="m61.67,21.5h-8.4v8.73h7.21v9.21h-7.21v20.06h-12.27V11.9h20.67v9.6Z"/>
  <path d="m85.2,21.5h-8.4v8.73h7.21v9.21h-7.21v20.06h-12.27V11.9h20.67v9.6Z"/>
  <path d="m100.33,50.29h8.15v9.21h-20.42V11.9h12.27v38.4Z"/>
  <path d="m123.67,59.5h-12.27V11.9h12.27v47.6Z"/>
  <path d="m145.14,35.56h.13V11.9h10.4v47.6h-10.4l-6.94-26.6h-.19v26.6h-10.42V11.9h10.42l7,23.67Z"/>
  <path d="m180.67,21.5h-8.48v8.73h7.94v9.21h-7.94v10.46h9.15v9.6h-21.42V11.9h20.75v9.6Z"/>
  <path class="cls-1" d="m30.75,80.33h127"/>
</svg>